<svg width="25" height="15" viewBox="0 0 25 15" fill="none" xmlns="http://www.w3.org/2000/svg">
<path d="M12.4687 9.90806L3.25939 0.414218C3.00644 0.152813 2.66514 0.00592965 2.29892 0.000349731C1.9325 -0.00523328 1.58709 0.131187 1.32588 0.384757L0.494383 1.19169C0.232772 1.44485 0.0856827 1.78635 0.0801028 2.15257C0.0745229 2.51879 0.211146 2.8642 0.46492 3.12541L11.4293 14.4293C11.6835 14.6916 12.0262 14.8383 12.3929 14.8428C12.7611 14.8495 13.1077 14.7135 13.37 14.4589L24.6628 3.50447C24.9244 3.25111 25.0715 2.91002 25.077 2.5436C25.0826 2.17738 24.946 1.83197 24.6922 1.57055L23.8857 0.73886C23.3608 0.19767 22.493 0.184447 21.952 0.709397L12.4687 9.90806Z" fill="#3F3F3F"/>
</svg>
