<svg width="13" height="20" viewBox="0 0 13 20" fill="none" xmlns="http://www.w3.org/2000/svg">
<path d="M8.33017 9.90907L1.22232 17.0172C1.0266 17.2125 0.918936 17.4735 0.918936 17.7519C0.918936 18.0304 1.0266 18.2913 1.22232 18.4869L1.84515 19.1094C2.04055 19.3053 2.30176 19.4131 2.58012 19.4131C2.85848 19.4131 3.11938 19.3053 3.31494 19.1094L11.778 10.6465C11.9743 10.4503 12.0818 10.1882 12.0811 9.90953C12.0818 9.62963 11.9745 9.3678 11.778 9.17147L3.32282 0.716778C3.12726 0.520906 2.86636 0.413086 2.58785 0.413086C2.30949 0.413086 2.04859 0.520906 1.85287 0.716778L1.2302 1.3393C0.825017 1.74448 0.825017 2.40407 1.2302 2.80909L8.33017 9.90907Z" fill="#F5F5F5"/>
</svg>
