<svg width="34" height="25" viewBox="0 0 34 25" fill="none" xmlns="http://www.w3.org/2000/svg">
<path d="M0 2.08333C0 0.93274 0.93274 0 2.08333 0H31.9167C33.0673 0 34 0.93274 34 2.08333C34 3.23393 33.0673 4.16667 31.9167 4.16667H17H2.08333C0.93274 4.16667 0 3.23393 0 2.08333ZM0 12.5C0 11.3494 0.93274 10.4167 2.08333 10.4167H31.9167C33.0673 10.4167 34 11.3494 34 12.5C34 13.6506 33.0673 14.5833 31.9167 14.5833H2.08333C0.932739 14.5833 0 13.6506 0 12.5ZM0 22.9167C0 21.7661 0.93274 20.8333 2.08333 20.8333H31.9167C33.0673 20.8333 34 21.7661 34 22.9167C34 24.0673 33.0673 25 31.9167 25H2.08333C0.932739 25 0 24.0673 0 22.9167Z" fill="white"/>
</svg>
