<svg width="45" height="40" viewBox="0 0 45 40" fill="none" xmlns="http://www.w3.org/2000/svg">
<path d="M1.79926 34.1881H8.22667V38.0446C8.22667 38.7545 8.80222 39.3301 9.51215 39.3301H43.1061C43.816 39.3301 44.3915 38.7545 44.3915 38.0446V4.62207C44.3915 3.91214 43.816 3.33659 43.1061 3.33659H36.6786V2.05111C36.6786 1.34118 36.1031 0.765625 35.3932 0.765625C34.6832 0.765625 34.1077 1.34118 34.1077 2.05111V3.33659H27.5946V2.05111C27.5946 1.34118 27.019 0.765625 26.3091 0.765625C25.5992 0.765625 25.0236 1.34118 25.0236 2.05111V3.33659H18.5962V2.05111C18.5962 1.34118 18.0207 0.765625 17.3107 0.765625C16.6008 0.765625 16.0253 1.34118 16.0253 2.05111V3.33659H9.51215C8.80222 3.33659 8.22667 3.91214 8.22667 4.62207V12.335C8.22667 21.809 4.28924 29.0973 0.976295 31.9151C0.560485 32.2616 0.406313 32.8314 0.590479 33.3403C0.774818 33.8492 1.25799 34.1881 1.79926 34.1881V34.1881ZM41.8206 36.7591H10.7976V34.1881H35.3932C35.6939 34.1881 35.9851 34.0827 36.2161 33.8902C37.7615 32.6031 40.1551 29.5386 41.8206 25.6138V36.7591ZM10.7976 5.90755H16.0253V7.19303C16.0253 7.90296 16.6008 8.47851 17.3107 8.47851C18.0207 8.47851 18.5962 7.90296 18.5962 7.19303V5.90755H25.0236V7.19303C25.0236 7.90296 25.5992 8.47851 26.3091 8.47851C27.019 8.47851 27.5946 7.90296 27.5946 7.19303V5.90755H34.1077V7.19303C34.1077 7.90296 34.6832 8.47851 35.3932 8.47851C36.1031 8.47851 36.6786 7.90296 36.6786 7.19303V5.90755H41.8206V11.0495H10.7976V5.90755ZM10.7756 13.6196H41.7978C41.5081 21.7742 38.3783 28.1903 34.8891 31.6172H4.72322C8.67676 26.5797 10.5635 20.0206 10.7756 13.6196V13.6196Z" fill="white"/>
</svg>
