<svg width="48" height="47" viewBox="0 0 48 47" fill="none" xmlns="http://www.w3.org/2000/svg">
<path d="M24.0926 0.101562C11.2153 0.101562 0.738281 10.5785 0.738281 23.4559C0.738281 36.3332 11.2153 46.8102 24.0926 46.8102C36.97 46.8102 47.4469 36.3332 47.4469 23.4559C47.4469 10.5785 36.97 0.101562 24.0926 0.101562ZM24.0926 43.8909C12.8245 43.8909 3.65759 34.724 3.65759 23.4559C3.65759 12.1878 12.8245 3.02087 24.0926 3.02087C35.3607 3.02087 44.5276 12.1878 44.5276 23.4559C44.5276 34.724 35.3607 43.8909 24.0926 43.8909Z" fill="#FBFBFB"/>
<path d="M25.5521 8.85938H22.6328V24.0602L31.8183 33.2457L33.8823 31.1816L25.5521 22.8514V8.85938Z" fill="#FBFBFB"/>
</svg>
