<svg width="47" height="53" viewBox="0 0 47 53" fill="none" xmlns="http://www.w3.org/2000/svg">
<path d="M13.5419 6.86087H5.95387C5.53 6.86087 5.18652 6.51739 5.18652 6.09352C5.18652 5.66965 5.53 5.32617 5.95387 5.32617H13.5419C13.9658 5.32617 14.3093 5.66965 14.3093 6.09352C14.3093 6.51739 13.9657 6.86087 13.5419 6.86087Z" fill="#FBFBFB" stroke="#FBFBFB" stroke-width="0.425722"/>
<path d="M13.5419 11.4751H5.95387C5.53 11.4751 5.18652 11.1316 5.18652 10.7078C5.18652 10.2839 5.53 9.94043 5.95387 9.94043H13.5419C13.9658 9.94043 14.3093 10.2839 14.3093 10.7078C14.3093 11.1316 13.9657 11.4751 13.5419 11.4751Z" fill="#FBFBFB" stroke="#FBFBFB" stroke-width="0.425722"/>
<path d="M10.7335 48.1408C10.5473 48.1408 10.36 48.0852 10.1823 47.9423C9.54146 47.4269 9.89179 46.6461 10.5281 45.2287C10.8173 44.5846 11.4734 43.1229 11.4449 42.6186C11.1011 42.5205 10.1837 42.8338 8.52393 44.5706C7.19933 45.9568 6.08963 47.5392 6.07858 47.5549C5.83596 47.9023 5.35767 47.9874 5.0102 47.7447C4.66284 47.5019 4.57774 47.0238 4.82036 46.6764C4.86782 46.6084 6.00002 44.9928 7.40369 43.5217C8.19804 42.689 10.6153 40.1552 12.4015 41.3953C13.5226 42.1737 12.7956 43.9199 12.0215 45.6491C15.1303 43.5835 16.2785 44.117 17.7975 45.1243C18.6478 45.6883 19.5269 46.2715 21.395 46.2715C21.8188 46.2715 22.1623 46.615 22.1623 47.0389C22.1623 47.4628 21.8188 47.8062 21.395 47.8062C19.0643 47.8062 17.8419 46.9953 16.9491 46.4033C16.2664 45.9505 15.9142 45.7349 15.3537 45.786C14.5939 45.8552 13.4679 46.4499 11.9113 47.6041C11.6342 47.8096 11.1875 48.1407 10.7335 48.1408Z" fill="#FBFBFB" stroke="#FBFBFB" stroke-width="0.425722"/>
<path d="M46.0278 13.6975L44.8636 12.8685C44.1957 12.3926 43.2685 12.5481 42.7925 13.2168L41.6404 14.8348C41.1163 14.8713 40.6119 15.1328 40.284 15.5933L24.947 37.1315C22.8894 40.0214 22.3539 42.3861 21.7756 43.7848C21.5172 44.4904 21.7548 45.2576 22.3671 45.6935C22.9806 46.1304 23.7833 46.1021 24.3643 45.6281C25.4955 44.6255 27.5559 43.3453 29.6141 40.4549L43.7515 20.601L44.6981 21.2751C44.8149 21.3582 44.8398 21.5189 44.7584 21.6333L41.4504 26.2787C41.2046 26.6239 41.2851 27.1031 41.6304 27.3489C41.9756 27.5947 42.4547 27.5143 42.7006 27.169L46.0085 22.5236C46.5815 21.7189 46.393 20.598 45.5884 20.025L44.6417 19.351L44.951 18.9166C45.2684 18.471 45.3678 17.9168 45.2247 17.3856L46.3759 15.7688C46.8522 15.1005 46.6967 14.1737 46.0278 13.6975ZM44.0138 14.1475L45.0971 14.9189L44.2138 16.1594L43.1304 15.388L44.0138 14.1475ZM41.534 16.4835C41.6247 16.3558 41.8026 16.3263 41.9296 16.4168L43.6342 17.6306C43.7612 17.721 43.7924 17.898 43.7009 18.0262L31.6766 34.9126L29.5098 33.3696L41.534 16.4835ZM28.3641 39.5647C27.4399 40.8627 26.3453 42.0314 25.1106 43.0385L23.3942 44.4389C23.3694 44.4594 23.3276 44.4933 23.2573 44.4434C23.1871 44.3935 23.2057 44.3427 23.2168 44.3125L23.9785 42.2325C24.5267 40.7359 25.2731 39.3193 26.1972 38.0217L28.6196 34.6199L30.7864 36.1629L28.3641 39.5647Z" fill="#FBFBFB" stroke="#FBFBFB" stroke-width="0.425722"/>
<path d="M38.3111 16.3067C38.7349 16.3067 39.0784 15.9633 39.0784 15.5394V11.7689C39.0784 10.8728 38.7294 10.0303 38.0958 9.3964L30.1498 1.45054C29.516 0.816773 28.6734 0.467773 27.7772 0.467773H4.61855C2.3118 0.467773 0.435059 2.34441 0.435059 4.65126V48.6546C0.435059 50.9614 2.3117 52.8381 4.61855 52.8381H34.895C37.2018 52.8381 39.0785 50.9615 39.0785 48.6546V31.0843C39.0785 30.6604 38.7351 30.3169 38.3112 30.3169C37.8873 30.3169 37.5438 30.6604 37.5438 31.0843V48.6546C37.5438 50.1151 36.3556 51.3034 34.895 51.3034H4.61855C3.15801 51.3034 1.96975 50.1151 1.96975 48.6546V4.65126C1.96975 3.19072 3.15801 2.00247 4.61855 2.00247H27.7773C27.8806 2.00247 27.9821 2.0128 28.0819 2.02958V7.28103C28.0819 9.58778 29.9585 11.4645 32.2653 11.4645H37.5168C37.5336 11.5643 37.5439 11.6658 37.5439 11.769V15.5395C37.5438 15.9633 37.8873 16.3067 38.3111 16.3067V16.3067ZM29.6165 7.28103V3.08772L36.4587 9.92982H32.2652C30.8046 9.92982 29.6165 8.74157 29.6165 7.28103Z" fill="#FBFBFB" stroke="#FBFBFB" stroke-width="0.425722"/>
</svg>
