<svg width="58" height="74" viewBox="0 0 58 74" fill="none" xmlns="http://www.w3.org/2000/svg">
<circle cx="18.8777" cy="54.241" r="18.842" fill="#FCC944"/>
<path d="M44.8834 55.2479H23.8474C23.6583 55.2479 23.4769 55.167 23.3431 55.023C23.2094 54.879 23.1343 54.6836 23.1343 54.48C23.1343 54.2763 23.2094 54.0809 23.3431 53.9369C23.4769 53.7929 23.6583 53.712 23.8474 53.712H44.6675L46.8068 52.1761H24.0793C23.8901 52.1761 23.7088 52.0952 23.575 51.9511C23.4413 51.8071 23.3662 51.6118 23.3662 51.4081C23.3662 51.2044 23.4413 51.0091 23.575 50.8651C23.7088 50.721 23.8901 50.6401 24.0793 50.6401H49.1621C49.3151 50.6402 49.4641 50.6932 49.587 50.7914C49.7099 50.8896 49.8002 51.0278 49.8445 51.1856C49.8889 51.3433 49.8849 51.5122 49.8332 51.6674C49.7816 51.8225 49.6849 51.9556 49.5576 52.047L45.279 55.1189C45.1618 55.203 45.0242 55.2479 44.8834 55.2479Z" fill="#004496"/>
<path d="M19.9245 48.2951C19.8309 48.2952 19.7381 48.2753 19.6516 48.2368C19.565 48.1982 19.4864 48.1416 19.4202 48.0703C19.354 47.999 19.3014 47.9143 19.2656 47.8211C19.2298 47.7279 19.2114 47.628 19.2114 47.5271V13.802C19.2078 12.978 18.9008 12.1893 18.3578 11.6087C17.8149 11.0282 17.0802 10.7033 16.3151 10.7054H13.5066C13.3174 10.7054 13.1361 10.6245 13.0023 10.4804C12.8686 10.3364 12.7935 10.1411 12.7935 9.9374C12.7935 9.73372 12.8686 9.53839 13.0023 9.39437C13.1361 9.25035 13.3174 9.16944 13.5066 9.16944H16.3151C17.4584 9.1678 18.5556 9.65463 19.3659 10.5231C20.1763 11.3916 20.6336 12.5708 20.6377 13.802V47.5271C20.6377 47.628 20.6193 47.7279 20.5835 47.8211C20.5477 47.9143 20.4952 47.999 20.4289 48.0703C20.3627 48.1416 20.2841 48.1982 20.1975 48.2368C20.111 48.2753 20.0182 48.2952 19.9245 48.2951Z" fill="#004496"/>
<path d="M19.5676 58.3198C18.5098 58.3198 17.4757 57.982 16.5962 57.3491C15.7167 56.7162 15.0312 55.8166 14.6264 54.7642C14.2216 53.7117 14.1156 52.5536 14.322 51.4364C14.5284 50.3191 15.0378 49.2928 15.7857 48.4873C16.5337 47.6818 17.4867 47.1332 18.5242 46.911C19.5616 46.6887 20.637 46.8028 21.6143 47.2387C22.5916 47.6747 23.4268 48.4129 24.0145 49.3601C24.6022 50.3073 24.9159 51.4209 24.9159 52.56C24.9143 54.0871 24.3504 55.5511 23.3477 56.6309C22.345 57.7107 20.9855 58.3181 19.5676 58.3198ZM19.5676 48.3362C18.7918 48.3362 18.0335 48.5839 17.3886 49.0481C16.7436 49.5122 16.2409 50.1718 15.944 50.9436C15.6472 51.7154 15.5695 52.5647 15.7208 53.384C15.8722 54.2034 16.2457 54.956 16.7942 55.5467C17.3427 56.1374 18.0416 56.5397 18.8024 56.7027C19.5632 56.8656 20.3518 56.782 21.0685 56.4623C21.7852 56.1426 22.3977 55.6012 22.8287 54.9066C23.2596 54.212 23.4897 53.3954 23.4897 52.56C23.4884 51.4402 23.0747 50.3667 22.3395 49.5749C21.6042 48.7831 20.6074 48.3376 19.5676 48.3362Z" fill="#004496"/>
<path d="M19.5686 55.2503C19.075 55.2503 18.5924 55.0926 18.182 54.7973C17.7716 54.5019 17.4517 54.0821 17.2627 53.591C17.0738 53.0998 17.0244 52.5594 17.1207 52.038C17.217 51.5166 17.4547 51.0377 17.8038 50.6618C18.1528 50.2859 18.5976 50.0299 19.0817 49.9262C19.5659 49.8224 20.0677 49.8757 20.5238 50.0791C20.9798 50.2826 21.3696 50.6271 21.6439 51.0691C21.9181 51.5111 22.0645 52.0308 22.0645 52.5624C22.0637 53.275 21.8005 53.9582 21.3326 54.462C20.8647 54.9659 20.2303 55.2494 19.5686 55.2503ZM19.5686 51.4104C19.3571 51.4104 19.1503 51.478 18.9744 51.6046C18.7985 51.7312 18.6614 51.9111 18.5804 52.1216C18.4994 52.332 18.4783 52.5637 18.5195 52.7871C18.5608 53.0106 18.6627 53.2158 18.8123 53.3769C18.9619 53.538 19.1525 53.6477 19.36 53.6922C19.5675 53.7366 19.7825 53.7138 19.978 53.6266C20.1734 53.5395 20.3405 53.3918 20.458 53.2024C20.5756 53.0129 20.6383 52.7902 20.6383 52.5624C20.638 52.257 20.5252 51.9642 20.3247 51.7482C20.1241 51.5322 19.8522 51.4108 19.5686 51.4104Z" fill="#004496"/>
<path d="M25.8148 49.11C25.6256 49.1101 25.4442 49.0293 25.3104 48.8853C25.1766 48.7414 25.1014 48.5461 25.1013 48.3424C25.1012 48.1387 25.1762 47.9433 25.3099 47.7992C25.4436 47.6552 25.6249 47.5741 25.814 47.574C31.6951 47.5665 37.5762 47.564 43.4572 47.5665V24.5276H23.4902V43.5887C23.4902 43.7924 23.4151 43.9877 23.2813 44.1318C23.1476 44.2758 22.9662 44.3567 22.7771 44.3567C22.5879 44.3567 22.4066 44.2758 22.2728 44.1318C22.1391 43.9877 22.064 43.7924 22.064 43.5887V23.7597C22.0639 23.6588 22.0823 23.5589 22.1181 23.4657C22.154 23.3725 22.2065 23.2878 22.2727 23.2165C22.3389 23.1452 22.4176 23.0886 22.5041 23.05C22.5907 23.0115 22.6834 22.9916 22.7771 22.9917H44.1704C44.264 22.9916 44.3568 23.0115 44.4433 23.05C44.5299 23.0886 44.6085 23.1452 44.6747 23.2165C44.7409 23.2878 44.7935 23.3725 44.8293 23.4657C44.8651 23.5589 44.8835 23.6588 44.8835 23.7597V48.3345C44.8835 48.4354 44.8651 48.5353 44.8293 48.6285C44.7935 48.7217 44.7409 48.8063 44.6747 48.8777C44.6085 48.949 44.5299 49.0056 44.4433 49.0441C44.3568 49.0827 44.264 49.1025 44.1704 49.1025C38.0518 49.1025 31.9335 49.105 25.8154 49.11H25.8148Z" fill="#004496"/>
<path d="M36.3267 32.9752H30.6218C30.5281 32.9753 30.4354 32.9555 30.3488 32.9169C30.2623 32.8783 30.1837 32.8218 30.1174 32.7504C30.0512 32.6791 29.9987 32.5944 29.9629 32.5012C29.927 32.408 29.9086 32.3081 29.9087 32.2073V23.7597C29.9087 23.556 29.9838 23.3607 30.1176 23.2166C30.2513 23.0726 30.4327 22.9917 30.6218 22.9917C30.8109 22.9917 30.9923 23.0726 31.126 23.2166C31.2598 23.3607 31.3349 23.556 31.3349 23.7597V31.4393H35.6136V23.7597C35.6136 23.556 35.6887 23.3607 35.8224 23.2166C35.9562 23.0726 36.1375 22.9917 36.3267 22.9917C36.5158 22.9917 36.6972 23.0726 36.8309 23.2166C36.9647 23.3607 37.0398 23.556 37.0398 23.7597V32.2073C37.0398 32.3081 37.0214 32.408 36.9856 32.5012C36.9498 32.5944 36.8973 32.6791 36.831 32.7504C36.7648 32.8218 36.6862 32.8783 36.5996 32.9169C36.5131 32.9555 36.4203 32.9753 36.3267 32.9752Z" fill="#004496"/>
<path d="M33.474 44.4944H26.3415C26.1524 44.4944 25.971 44.4135 25.8373 44.2695C25.7035 44.1255 25.6284 43.9301 25.6284 43.7265C25.6284 43.5228 25.7035 43.3274 25.8373 43.1834C25.971 43.0394 26.1524 42.9585 26.3415 42.9585H33.474C33.6632 42.9585 33.8446 43.0394 33.9783 43.1834C34.112 43.3274 34.1872 43.5228 34.1872 43.7265C34.1872 43.9301 34.112 44.1255 33.9783 44.2695C33.8446 44.4135 33.6632 44.4944 33.474 44.4944Z" fill="#004496"/>
<path d="M30.6209 41.4241H26.3415C26.1524 41.4241 25.971 41.3432 25.8373 41.1992C25.7035 41.0552 25.6284 40.8598 25.6284 40.6561C25.6284 40.4525 25.7035 40.2571 25.8373 40.1131C25.971 39.9691 26.1524 39.8882 26.3415 39.8882H30.6209C30.81 39.8882 30.9914 39.9691 31.1251 40.1131C31.2589 40.2571 31.334 40.4525 31.334 40.6561C31.334 40.8598 31.2589 41.0552 31.1251 41.1992C30.9914 41.3432 30.81 41.4241 30.6209 41.4241Z" fill="#004496"/>
<path d="M27.7691 52.1728C27.6532 52.173 27.5391 52.1428 27.4366 52.0848C27.334 52.0268 27.2462 51.9427 27.1806 51.8399L19.3364 39.5524C19.2295 39.3846 19.1889 39.1779 19.2234 38.9777C19.258 38.7776 19.3649 38.6004 19.5207 38.4852C19.6765 38.3699 19.8684 38.3259 20.0542 38.3629C20.2401 38.3999 20.4047 38.5148 20.5119 38.6825L28.3561 50.9699C28.4297 51.0852 28.4726 51.2199 28.4803 51.3595C28.488 51.4991 28.4601 51.6383 28.3997 51.7622C28.3393 51.886 28.2486 51.9896 28.1375 52.062C28.0263 52.1344 27.8989 52.1727 27.7691 52.1728Z" fill="#004496"/>
<path d="M41.3168 58.3182C40.5605 58.3174 39.8354 57.9935 39.3006 57.4176C38.7659 56.8417 38.4651 56.0608 38.4644 55.2464V54.4784C38.4644 54.2747 38.5395 54.0794 38.6732 53.9354C38.807 53.7914 38.9883 53.7104 39.1775 53.7104C39.3666 53.7104 39.548 53.7914 39.6817 53.9354C39.8154 54.0794 39.8906 54.2747 39.8906 54.4784V55.2464C39.8906 55.6537 40.0408 56.0444 40.3083 56.3324C40.5758 56.6205 40.9385 56.7823 41.3168 56.7823C41.695 56.7823 42.0578 56.6205 42.3253 56.3324C42.5928 56.0444 42.743 55.6537 42.743 55.2464V54.4784C42.743 54.2747 42.8181 54.0794 42.9519 53.9354C43.0856 53.7914 43.267 53.7104 43.4561 53.7104C43.6452 53.7104 43.8266 53.7914 43.9604 53.9354C44.0941 54.0794 44.1692 54.2747 44.1692 54.4784V55.2464C44.1685 56.0608 43.8677 56.8417 43.3329 57.4176C42.7982 57.9935 42.0731 58.3174 41.3168 58.3182Z" fill="#004496"/>
</svg>
