<svg width="39" height="49" viewBox="0 0 39 49" fill="none" xmlns="http://www.w3.org/2000/svg">
<circle cx="12.5356" cy="36.1011" r="12.5" fill="#FCC944"/>
<path d="M29.788 36.7693H15.8325C15.707 36.7693 15.5867 36.7156 15.4979 36.62C15.4092 36.5245 15.3594 36.3949 15.3594 36.2598C15.3594 36.1247 15.4092 35.9951 15.4979 35.8995C15.5867 35.804 15.707 35.7503 15.8325 35.7503H29.6448L31.064 34.7314H15.9863C15.8608 34.7314 15.7405 34.6777 15.6518 34.5821C15.5631 34.4866 15.5132 34.357 15.5132 34.2219C15.5132 34.0868 15.5631 33.9572 15.6518 33.8616C15.7405 33.7661 15.8608 33.7124 15.9863 33.7124H32.6265C32.728 33.7124 32.8268 33.7476 32.9084 33.8128C32.9899 33.8779 33.0498 33.9696 33.0792 34.0742C33.1086 34.1789 33.106 34.2909 33.0717 34.3939C33.0375 34.4968 32.9734 34.5851 32.8889 34.6458L30.0504 36.6837C29.9727 36.7394 29.8814 36.7692 29.788 36.7693Z" fill="#004496"/>
<path d="M13.2299 32.1571C13.1677 32.1571 13.1062 32.1439 13.0488 32.1184C12.9914 32.0928 12.9392 32.0552 12.8953 32.0079C12.8513 31.9606 12.8165 31.9044 12.7927 31.8426C12.769 31.7808 12.7567 31.7145 12.7568 31.6476V9.27396C12.7544 8.72733 12.5507 8.20406 12.1905 7.81894C11.8303 7.43381 11.3429 7.21829 10.8353 7.21964H8.97211C8.84664 7.21964 8.72631 7.16596 8.63759 7.07041C8.54887 6.97487 8.49902 6.84528 8.49902 6.71016C8.49902 6.57504 8.54887 6.44545 8.63759 6.34991C8.72631 6.25436 8.84664 6.20069 8.97211 6.20069H10.8353C11.5938 6.1996 12.3217 6.52257 12.8593 7.09872C13.3969 7.67488 13.7003 8.45717 13.7029 9.27396V31.6476C13.703 31.7145 13.6908 31.7807 13.667 31.8426C13.6433 31.9044 13.6084 31.9606 13.5645 32.0079C13.5205 32.0552 13.4684 32.0928 13.411 32.1184C13.3535 32.1439 13.292 32.1571 13.2299 32.1571Z" fill="#004496"/>
<path d="M12.9934 38.8077C12.2917 38.8077 11.6057 38.5836 11.0222 38.1637C10.4387 37.7438 9.98395 37.1471 9.7154 36.4489C9.44685 35.7506 9.37659 34.9824 9.51349 34.2411C9.6504 33.4999 9.98832 32.8191 10.4845 32.2847C10.9808 31.7503 11.613 31.3864 12.3012 31.2389C12.9895 31.0915 13.7029 31.1672 14.3513 31.4564C14.9996 31.7456 15.5537 32.2354 15.9436 32.8637C16.3335 33.4921 16.5416 34.2309 16.5416 34.9866C16.5406 35.9997 16.1664 36.9709 15.5012 37.6873C14.836 38.4036 13.9342 38.8066 12.9934 38.8077ZM12.9934 32.1845C12.4788 32.1845 11.9758 32.3488 11.5479 32.6567C11.12 32.9646 10.7865 33.4023 10.5895 33.9143C10.3926 34.4263 10.3411 34.9897 10.4415 35.5333C10.5419 36.0768 10.7897 36.5761 11.1536 36.968C11.5175 37.3599 11.9811 37.6267 12.4858 37.7349C12.9906 37.843 13.5137 37.7875 13.9892 37.5754C14.4646 37.3633 14.871 37.0042 15.1569 36.5434C15.4428 36.0826 15.5954 35.5408 15.5954 34.9866C15.5946 34.2437 15.3201 33.5315 14.8324 33.0062C14.3446 32.4809 13.6833 32.1854 12.9934 32.1845Z" fill="#004496"/>
<path d="M12.9937 36.7709C12.6662 36.7709 12.3461 36.6663 12.0738 36.4704C11.8015 36.2745 11.5893 35.996 11.4639 35.6701C11.3386 35.3443 11.3058 34.9858 11.3697 34.6399C11.4336 34.294 11.5913 33.9762 11.8229 33.7269C12.0544 33.4775 12.3495 33.3077 12.6707 33.2389C12.9918 33.17 13.3248 33.2054 13.6273 33.3403C13.9299 33.4753 14.1885 33.7038 14.3704 33.9971C14.5524 34.2903 14.6495 34.6351 14.6495 34.9878C14.649 35.4605 14.4743 35.9137 14.1639 36.248C13.8535 36.5823 13.4327 36.7703 12.9937 36.7709ZM12.9937 34.2235C12.8533 34.2235 12.7161 34.2684 12.5994 34.3523C12.4827 34.4363 12.3918 34.5557 12.3381 34.6953C12.2844 34.8349 12.2703 34.9886 12.2977 35.1368C12.3251 35.2851 12.3927 35.4213 12.4919 35.5281C12.5911 35.635 12.7176 35.7078 12.8552 35.7373C12.9929 35.7668 13.1356 35.7516 13.2652 35.6938C13.3949 35.636 13.5057 35.538 13.5837 35.4123C13.6617 35.2867 13.7033 35.1389 13.7033 34.9878C13.7031 34.7851 13.6283 34.5909 13.4952 34.4476C13.3622 34.3043 13.1818 34.2238 12.9937 34.2235Z" fill="#004496"/>
<path d="M17.1372 32.6977C17.0118 32.6978 16.8914 32.6442 16.8026 32.5487C16.7139 32.4532 16.664 32.3236 16.6639 32.1885C16.6639 32.0534 16.7136 31.9238 16.8023 31.8282C16.891 31.7326 17.0113 31.6789 17.1368 31.6788C21.0383 31.6738 24.9399 31.6722 28.8415 31.6738V16.3896H15.5951V29.0349C15.5951 29.17 15.5453 29.2996 15.4565 29.3951C15.3678 29.4907 15.2475 29.5444 15.122 29.5444C14.9965 29.5444 14.8762 29.4907 14.7875 29.3951C14.6988 29.2996 14.6489 29.17 14.6489 29.0349V15.8801C14.6489 15.8132 14.6611 15.7469 14.6849 15.6851C14.7086 15.6232 14.7435 15.5671 14.7874 15.5197C14.8313 15.4724 14.8835 15.4349 14.9409 15.4093C14.9983 15.3837 15.0599 15.3706 15.122 15.3706H29.3145C29.3767 15.3706 29.4382 15.3837 29.4956 15.4093C29.553 15.4349 29.6052 15.4724 29.6491 15.5197C29.6931 15.5671 29.7279 15.6232 29.7517 15.6851C29.7754 15.7469 29.7877 15.8132 29.7876 15.8801V32.1833C29.7877 32.2502 29.7754 32.3165 29.7517 32.3783C29.7279 32.4401 29.6931 32.4963 29.6491 32.5436C29.6052 32.5909 29.553 32.6285 29.4956 32.6541C29.4382 32.6797 29.3767 32.6928 29.3145 32.6928C25.2554 32.6928 21.1965 32.6944 17.1377 32.6977H17.1372Z" fill="#004496"/>
<path d="M24.1108 21.9938H20.3261C20.264 21.9938 20.2024 21.9807 20.145 21.9551C20.0876 21.9295 20.0354 21.892 19.9915 21.8446C19.9476 21.7973 19.9127 21.7412 19.889 21.6793C19.8652 21.6175 19.853 21.5512 19.853 21.4843V15.8801C19.853 15.745 19.9029 15.6154 19.9916 15.5198C20.0803 15.4243 20.2006 15.3706 20.3261 15.3706C20.4516 15.3706 20.5719 15.4243 20.6606 15.5198C20.7494 15.6154 20.7992 15.745 20.7992 15.8801V20.9748H23.6377V15.8801C23.6377 15.745 23.6875 15.6154 23.7763 15.5198C23.865 15.4243 23.9853 15.3706 24.1108 15.3706C24.2363 15.3706 24.3566 15.4243 24.4453 15.5198C24.534 15.6154 24.5839 15.745 24.5839 15.8801V21.4843C24.5839 21.5512 24.5717 21.6175 24.5479 21.6793C24.5242 21.7412 24.4893 21.7973 24.4454 21.8446C24.4014 21.892 24.3493 21.9295 24.2919 21.9551C24.2345 21.9807 24.1729 21.9938 24.1108 21.9938Z" fill="#004496"/>
<path d="M22.2185 29.6356H17.4868C17.3613 29.6356 17.241 29.582 17.1522 29.4864C17.0635 29.3909 17.0137 29.2613 17.0137 29.1262C17.0137 28.9911 17.0635 28.8615 17.1522 28.7659C17.241 28.6704 17.3613 28.6167 17.4868 28.6167H22.2185C22.344 28.6167 22.4643 28.6704 22.5531 28.7659C22.6418 28.8615 22.6916 28.9911 22.6916 29.1262C22.6916 29.2613 22.6418 29.3909 22.5531 29.4864C22.4643 29.582 22.344 29.6356 22.2185 29.6356Z" fill="#004496"/>
<path d="M20.3257 27.5985H17.4868C17.3613 27.5985 17.241 27.5449 17.1522 27.4493C17.0635 27.3538 17.0137 27.2242 17.0137 27.0891C17.0137 26.9539 17.0635 26.8244 17.1522 26.7288C17.241 26.6333 17.3613 26.5796 17.4868 26.5796H20.3257C20.4512 26.5796 20.5715 26.6333 20.6603 26.7288C20.749 26.8244 20.7988 26.9539 20.7988 27.0891C20.7988 27.2242 20.749 27.3538 20.6603 27.4493C20.5715 27.5449 20.4512 27.5985 20.3257 27.5985Z" fill="#004496"/>
<path d="M18.4341 34.7302C18.3572 34.7303 18.2815 34.7103 18.2135 34.6718C18.1455 34.6333 18.0872 34.5775 18.0437 34.5093L12.8398 26.3577C12.7688 26.2463 12.7419 26.1092 12.7648 25.9764C12.7877 25.8437 12.8587 25.7261 12.962 25.6497C13.0653 25.5732 13.1927 25.544 13.316 25.5685C13.4393 25.5931 13.5485 25.6693 13.6196 25.7806L18.8235 33.9322C18.8723 34.0086 18.9008 34.098 18.9059 34.1906C18.911 34.2833 18.8925 34.3756 18.8524 34.4578C18.8123 34.5399 18.7522 34.6087 18.6785 34.6567C18.6047 34.7047 18.5202 34.7301 18.4341 34.7302Z" fill="#004496"/>
<path d="M27.4221 38.8064C26.9204 38.8058 26.4394 38.5909 26.0846 38.2089C25.7298 37.8268 25.5303 37.3088 25.5298 36.7685V36.259C25.5298 36.1239 25.5796 35.9943 25.6683 35.8987C25.7571 35.8032 25.8774 35.7495 26.0029 35.7495C26.1283 35.7495 26.2487 35.8032 26.3374 35.8987C26.4261 35.9943 26.476 36.1239 26.476 36.259V36.7685C26.476 37.0387 26.5756 37.2979 26.7531 37.489C26.9305 37.6801 27.1712 37.7874 27.4221 37.7874C27.6731 37.7874 27.9137 37.6801 28.0912 37.489C28.2686 37.2979 28.3683 37.0387 28.3683 36.7685V36.259C28.3683 36.1239 28.4181 35.9943 28.5069 35.8987C28.5956 35.8032 28.7159 35.7495 28.8414 35.7495C28.9668 35.7495 29.0872 35.8032 29.1759 35.8987C29.2646 35.9943 29.3145 36.1239 29.3145 36.259V36.7685C29.314 37.3088 29.1144 37.8268 28.7597 38.2089C28.4049 38.5909 27.9238 38.8058 27.4221 38.8064Z" fill="#004496"/>
</svg>
