<svg width="39" height="52" viewBox="0 0 39 52" fill="none" xmlns="http://www.w3.org/2000/svg">
<path d="M33.2712 48.0251H11.5843C11.3893 48.0251 11.2023 47.9425 11.0644 47.7955C10.9266 47.6485 10.8491 47.4492 10.8491 47.2413C10.8491 47.0334 10.9266 46.8341 11.0644 46.6871C11.2023 46.5401 11.3893 46.4575 11.5843 46.4575H33.0487L35.2542 44.8899H11.8234C11.6284 44.8899 11.4414 44.8073 11.3035 44.6603C11.1656 44.5133 11.0882 44.3139 11.0882 44.1061C11.0882 43.8982 11.1656 43.6988 11.3035 43.5518C11.4414 43.4048 11.6284 43.3223 11.8234 43.3223H37.6823C37.8401 43.3223 37.9937 43.3764 38.1203 43.4767C38.247 43.5769 38.3401 43.7179 38.3859 43.8789C38.4316 44.0399 38.4275 44.2123 38.3742 44.3707C38.321 44.529 38.2214 44.6649 38.0901 44.7582L33.679 47.8934C33.5583 47.9792 33.4164 48.025 33.2712 48.0251Z" fill="#004496"/>
<path d="M7.54072 40.9298C7.44416 40.9299 7.34853 40.9097 7.25931 40.8703C7.17009 40.8309 7.08903 40.7732 7.02075 40.7004C6.95247 40.6276 6.89832 40.5412 6.86139 40.446C6.82447 40.3509 6.80549 40.249 6.80554 40.146V5.72517C6.80178 4.88421 6.4853 4.07918 5.92553 3.48668C5.36576 2.89419 4.6084 2.56261 3.81961 2.56469H0.92414C0.72916 2.56469 0.542165 2.48211 0.404293 2.33511C0.266421 2.18812 0.188965 1.98876 0.188965 1.78088C0.188965 1.573 0.266421 1.37364 0.404293 1.22665C0.542165 1.07965 0.72916 0.997075 0.92414 0.997075H3.81961C4.99825 0.995402 6.12937 1.49227 6.9648 2.37866C7.80024 3.26506 8.27175 4.46858 8.27589 5.72517V40.146C8.27595 40.2489 8.25698 40.3509 8.22005 40.446C8.18313 40.5411 8.12898 40.6276 8.0607 40.7004C7.99242 40.7732 7.91135 40.8309 7.82213 40.8703C7.73291 40.9097 7.63728 40.9299 7.54072 40.9298Z" fill="#004496"/>
<path d="M7.17349 51.1624C6.08296 51.1624 5.01692 50.8176 4.11017 50.1716C3.20343 49.5257 2.49671 48.6076 2.07938 47.5334C1.66206 46.4593 1.55287 45.2773 1.76562 44.137C1.97837 42.9966 2.50351 41.9492 3.27463 41.1271C4.04575 40.3049 5.02822 39.7451 6.09779 39.5182C7.16737 39.2914 8.27601 39.4078 9.28353 39.8528C10.291 40.2977 11.1522 41.0512 11.7581 42.0179C12.3639 42.9846 12.6873 44.1212 12.6873 45.2838C12.6857 46.8424 12.1043 48.3366 11.0706 49.4387C10.0369 50.5408 8.63535 51.1607 7.17349 51.1624ZM7.17349 40.9729C6.37376 40.9729 5.592 41.2257 4.92706 41.6994C4.26211 42.1731 3.74385 42.8464 3.43781 43.6341C3.13177 44.4218 3.0517 45.2886 3.20772 46.1248C3.36373 46.9611 3.74884 47.7292 4.31432 48.3321C4.87981 48.935 5.60029 49.3456 6.38464 49.5119C7.169 49.6783 7.98201 49.5929 8.72085 49.2666C9.4597 48.9403 10.0912 48.3878 10.5355 47.6788C10.9798 46.9699 11.217 46.1364 11.217 45.2838C11.2156 44.1409 10.7892 43.0452 10.0312 42.2371C9.27317 41.4289 8.24547 40.9743 7.17349 40.9729Z" fill="#004496"/>
<path d="M7.17321 48.0286C6.6643 48.0286 6.16681 47.8677 5.74367 47.5663C5.32052 47.2649 4.99072 46.8364 4.79597 46.3351C4.60121 45.8339 4.55026 45.2823 4.64954 44.7501C4.74882 44.218 4.99389 43.7292 5.35375 43.3455C5.7136 42.9618 6.17209 42.7006 6.67122 42.5947C7.17036 42.4889 7.68773 42.5432 8.1579 42.7508C8.62808 42.9585 9.02994 43.3101 9.31268 43.7612C9.59542 44.2123 9.74633 44.7427 9.74633 45.2853C9.7455 46.0126 9.47414 46.7099 8.99177 47.2242C8.5094 47.7384 7.85539 48.0278 7.17321 48.0286ZM7.17321 44.1096C6.95511 44.1096 6.7419 44.1786 6.56055 44.3077C6.3792 44.4369 6.23786 44.6206 6.15439 44.8354C6.07093 45.0502 6.04909 45.2866 6.09164 45.5147C6.13419 45.7427 6.23922 45.9522 6.39344 46.1167C6.54767 46.2811 6.74416 46.3931 6.95807 46.4384C7.17199 46.4838 7.39372 46.4605 7.59522 46.3715C7.79673 46.2825 7.96895 46.1318 8.09013 45.9385C8.2113 45.7452 8.27598 45.5178 8.27598 45.2853C8.27566 44.9736 8.15937 44.6748 7.95263 44.4543C7.74589 44.2339 7.46559 44.1099 7.17321 44.1096Z" fill="#004496"/>
<path d="M13.6134 41.7615C13.4185 41.7616 13.2314 41.6792 13.0935 41.5322C12.9555 41.3853 12.878 41.186 12.8779 40.9781C12.8778 40.7702 12.9552 40.5708 13.093 40.4238C13.2308 40.2767 13.4177 40.194 13.6127 40.1939C19.6757 40.1863 25.7388 40.1837 31.8018 40.1863V16.6721H11.2169V36.1264C11.2169 36.3343 11.1395 36.5336 11.0016 36.6806C10.8637 36.8276 10.6767 36.9102 10.4818 36.9102C10.2868 36.9102 10.0998 36.8276 9.96191 36.6806C9.82404 36.5336 9.74658 36.3343 9.74658 36.1264V15.8883C9.74653 15.7854 9.76551 15.6834 9.80243 15.5883C9.83936 15.4932 9.89351 15.4067 9.96179 15.3339C10.0301 15.2611 10.1111 15.2034 10.2004 15.164C10.2896 15.1247 10.3852 15.1044 10.4818 15.1045H32.537C32.6336 15.1044 32.7292 15.1247 32.8184 15.164C32.9076 15.2034 32.9887 15.2611 33.057 15.3339C33.1253 15.4067 33.1794 15.4932 33.2163 15.5883C33.2533 15.6834 33.2722 15.7854 33.2722 15.8883V40.9701C33.2722 41.073 33.2533 41.175 33.2163 41.2701C33.1794 41.3652 33.1253 41.4516 33.057 41.5244C32.9887 41.5972 32.9076 41.655 32.8184 41.6943C32.7292 41.7337 32.6336 41.7539 32.537 41.7539C26.2292 41.7539 19.9215 41.7564 13.6141 41.7615H13.6134Z" fill="#004496"/>
<path d="M24.4511 25.294H18.5696C18.4731 25.294 18.3775 25.2738 18.2882 25.2344C18.199 25.1951 18.118 25.1373 18.0497 25.0645C17.9814 24.9917 17.9272 24.9053 17.8903 24.8102C17.8534 24.7151 17.8344 24.6131 17.8345 24.5102V15.8883C17.8345 15.6804 17.9119 15.4811 18.0498 15.3341C18.1877 15.1871 18.3747 15.1045 18.5696 15.1045C18.7646 15.1045 18.9516 15.1871 19.0895 15.3341C19.2274 15.4811 19.3048 15.6804 19.3048 15.8883V23.7264H23.7159V15.8883C23.7159 15.6804 23.7933 15.4811 23.9312 15.3341C24.0691 15.1871 24.2561 15.1045 24.4511 15.1045C24.646 15.1045 24.833 15.1871 24.9709 15.3341C25.1088 15.4811 25.1862 15.6804 25.1862 15.8883V24.5102C25.1863 24.6131 25.1673 24.7151 25.1304 24.8102C25.0935 24.9053 25.0393 24.9917 24.971 25.0645C24.9027 25.1373 24.8217 25.1951 24.7325 25.2344C24.6432 25.2738 24.5476 25.294 24.4511 25.294Z" fill="#004496"/>
<path d="M21.5088 37.05H14.1556C13.9606 37.05 13.7736 36.9675 13.6357 36.8205C13.4979 36.6735 13.4204 36.4741 13.4204 36.2662C13.4204 36.0583 13.4979 35.859 13.6357 35.712C13.7736 35.565 13.9606 35.4824 14.1556 35.4824H21.5088C21.7038 35.4824 21.8908 35.565 22.0287 35.712C22.1665 35.859 22.244 36.0583 22.244 36.2662C22.244 36.4741 22.1665 36.6735 22.0287 36.8205C21.8908 36.9675 21.7038 37.05 21.5088 37.05Z" fill="#004496"/>
<path d="M18.5674 33.9172H14.1556C13.9606 33.9172 13.7736 33.8346 13.6357 33.6876C13.4979 33.5407 13.4204 33.3413 13.4204 33.1334C13.4204 32.9255 13.4979 32.7262 13.6357 32.5792C13.7736 32.4322 13.9606 32.3496 14.1556 32.3496H18.5674C18.7624 32.3496 18.9493 32.4322 19.0872 32.5792C19.2251 32.7262 19.3025 32.9255 19.3025 33.1334C19.3025 33.3413 19.2251 33.5407 19.0872 33.6876C18.9493 33.8346 18.7624 33.9172 18.5674 33.9172Z" fill="#004496"/>
<path d="M15.6276 44.8882C15.5082 44.8883 15.3906 44.8575 15.2848 44.7983C15.1791 44.7391 15.0886 44.6533 15.021 44.5483L6.93403 32.0074C6.82383 31.8361 6.78195 31.6251 6.81757 31.4209C6.85319 31.2166 6.96341 31.0358 7.124 30.9181C7.2846 30.8005 7.48244 30.7556 7.67405 30.7933C7.86567 30.8311 8.03539 30.9484 8.14592 31.1195L16.2329 43.6604C16.3087 43.778 16.353 43.9155 16.3609 44.058C16.3688 44.2005 16.34 44.3426 16.2777 44.469C16.2155 44.5954 16.122 44.7012 16.0074 44.7751C15.8928 44.8489 15.7615 44.888 15.6276 44.8882Z" fill="#004496"/>
<path d="M29.5965 51.1589C28.8168 51.1581 28.0693 50.8275 27.5179 50.2397C26.9666 49.6519 26.6565 48.8549 26.6558 48.0237V47.2399C26.6558 47.032 26.7332 46.8326 26.8711 46.6856C27.009 46.5386 27.196 46.4561 27.3909 46.4561C27.5859 46.4561 27.7729 46.5386 27.9108 46.6856C28.0487 46.8326 28.1261 47.032 28.1261 47.2399V48.0237C28.1261 48.4394 28.281 48.8382 28.5568 49.1321C28.8325 49.4261 29.2065 49.5913 29.5965 49.5913C29.9864 49.5913 30.3604 49.4261 30.6362 49.1321C30.9119 48.8382 31.0668 48.4394 31.0668 48.0237V47.2399C31.0668 47.032 31.1443 46.8326 31.2821 46.6856C31.42 46.5386 31.607 46.4561 31.802 46.4561C31.997 46.4561 32.184 46.5386 32.3218 46.6856C32.4597 46.8326 32.5372 47.032 32.5372 47.2399V48.0237C32.5364 48.8549 32.2263 49.6519 31.675 50.2397C31.1237 50.8275 30.3761 51.1581 29.5965 51.1589Z" fill="#004496"/>
</svg>
