<svg width="46" height="45" viewBox="0 0 46 45" fill="none" xmlns="http://www.w3.org/2000/svg">
<path d="M45.3813 5.80165C45.3546 5.77654 40.074 0.740566 40.074 0.740566C39.8722 0.546872 39.6634 0.34668 39.2735 0.34668H18.0145C17.3936 0.34668 16.8884 0.851813 16.8884 1.47276V4.93072L9.39566 6.21511C8.79508 6.32048 8.39118 6.89524 8.49523 7.4952L8.87551 9.71241C6.4401 10.532 3.93972 11.3768 1.52592 12.2439C0.955545 12.4524 0.656223 13.0866 0.859752 13.6604L5.66129 27.0079C5.75787 27.2765 6.01101 27.4438 6.281 27.4438C6.35493 27.4438 6.43027 27.4312 6.50385 27.4047C6.84611 27.2816 7.02373 26.9044 6.90063 26.5622L2.17013 13.412C4.44424 12.5978 6.79931 11.8009 9.1009 11.0262L11.3637 24.2183L13.9674 39.4111C14.0614 39.9474 14.5329 40.329 15.065 40.329C15.1252 40.329 15.1863 40.324 15.2476 40.3139L22.2996 39.1037L27.8102 38.1592L19.5223 41.1381L12.9866 43.488L7.9109 29.3701C7.78789 29.0279 7.41077 28.8502 7.06843 28.9732C6.72617 29.0963 6.54854 29.4735 6.67155 29.8157L11.8193 44.1342C11.9839 44.5844 12.4105 44.8644 12.8613 44.8644C12.9859 44.8644 13.1125 44.8429 13.2357 44.7979L19.9677 42.3775L35.2538 36.8833L38.174 36.3827H44.6251C45.246 36.3827 45.7512 35.8764 45.7512 35.2541V6.54367C45.7513 6.14952 45.5374 5.94845 45.3813 5.80165ZM43.6366 5.95759H40.3413L40.2596 5.95794C40.1019 5.95899 39.7325 5.96171 39.6388 5.86864C39.6172 5.84713 39.5919 5.77531 39.5919 5.64193L39.5843 2.09335L43.6366 5.95759ZM44.4343 35.0655H18.2054V22.2315C18.2054 21.8678 17.9106 21.573 17.5469 21.573C17.1832 21.573 16.8884 21.8678 16.8884 22.2315V35.2539C16.8884 35.8762 17.3936 36.3825 18.0145 36.3825H30.3783L22.0769 37.8055L15.2298 38.9806L12.6618 23.9956L9.82844 7.47711L16.8883 6.26692V19.176C16.8883 19.5396 17.1831 19.8345 17.5468 19.8345C17.9105 19.8345 18.2053 19.5396 18.2053 19.176V1.66364H38.2662L38.2748 5.64342C38.2748 6.12582 38.4216 6.51602 38.7109 6.80331C39.1554 7.2447 39.7838 7.27543 40.1739 7.27543C40.2075 7.27543 40.2393 7.27516 40.269 7.27499L44.4343 7.27473V35.0655Z" fill="#004496"/>
<path d="M21.3799 10.5706C21.3799 10.9343 21.6747 11.2292 22.0384 11.2292H40.8666C41.2303 11.2292 41.5252 10.9343 41.5252 10.5706C41.5252 10.207 41.2303 9.91211 40.8666 9.91211H22.0384C21.6747 9.91211 21.3799 10.207 21.3799 10.5706Z" fill="#004496"/>
<path d="M40.8666 14.5918H22.0384C21.6747 14.5918 21.3799 14.8866 21.3799 15.2503C21.3799 15.614 21.6747 15.9088 22.0384 15.9088H40.8666C41.2303 15.9088 41.5252 15.614 41.5252 15.2503C41.5252 14.8866 41.2303 14.5918 40.8666 14.5918Z" fill="#004496"/>
<path d="M40.8666 19.2705H22.0384C21.6747 19.2705 21.3799 19.5654 21.3799 19.929C21.3799 20.2927 21.6747 20.5876 22.0384 20.5876H40.8666C41.2303 20.5876 41.5252 20.2927 41.5252 19.929C41.5252 19.5654 41.2303 19.2705 40.8666 19.2705Z" fill="#004496"/>
<path d="M40.8666 23.9492H22.0384C21.6747 23.9492 21.3799 24.2441 21.3799 24.6077C21.3799 24.9714 21.6747 25.2663 22.0384 25.2663H40.8666C41.2303 25.2663 41.5252 24.9714 41.5252 24.6077C41.5252 24.2441 41.2303 23.9492 40.8666 23.9492Z" fill="#004496"/>
<path d="M40.8666 28.627H22.0384C21.6747 28.627 21.3799 28.9218 21.3799 29.2855C21.3799 29.6492 21.6747 29.944 22.0384 29.944H40.8666C41.2303 29.944 41.5252 29.6492 41.5252 29.2855C41.5252 28.9218 41.2303 28.627 40.8666 28.627Z" fill="#004496"/>
</svg>
