<svg width="56" height="43" viewBox="0 0 56 43" fill="none" xmlns="http://www.w3.org/2000/svg">
<path d="M50.0973 31.8789H48.3723V30.1538H50.5812C50.9638 30.1535 51.3416 30.0683 51.6873 29.9044C52.033 29.7404 52.3381 29.5019 52.5805 29.2059C52.823 28.9099 52.9968 28.5639 53.0894 28.1927C53.182 27.8214 53.1911 27.4343 53.1161 27.0591L52.0811 21.884C51.9627 21.2982 51.6457 20.7713 51.1837 20.3922C50.7217 20.0132 50.1429 19.8053 49.5453 19.8036H42.8867C42.6877 19.8038 42.4948 19.7353 42.3405 19.6095C42.1863 19.4838 42.0803 19.3086 42.0406 19.1136L40.8684 13.2588C40.75 12.673 40.433 12.1461 39.971 11.7671C39.5089 11.388 38.9302 11.1801 38.3326 11.1784H34.3995L30.2749 4.58016C29.8897 3.9586 29.3518 3.446 28.7124 3.0912C28.073 2.73639 27.3534 2.5512 26.6222 2.55324H14.07C14.0277 2.50235 13.9897 2.44888 13.9458 2.39885C13.2762 1.65352 12.3877 1.13962 11.4077 0.931001C10.4278 0.722381 9.40695 0.829779 8.49189 1.23776C7.57683 1.64574 6.81466 2.33331 6.3149 3.20165C5.81513 4.07 5.60351 5.07442 5.71043 6.07059L7.69422 24.6147C7.22874 25.2119 6.97453 25.9466 6.97143 26.7037V28.4288C5.1414 28.4288 3.38632 29.1558 2.09229 30.4498C0.798267 31.7438 0.0712891 33.4989 0.0712891 35.3289C0.0712891 37.159 0.798267 38.914 2.09229 40.2081C3.38632 41.5021 5.1414 42.2291 6.97143 42.2291H16.4591C16.6879 42.2291 16.9073 42.1382 17.069 41.9764C17.2308 41.8147 17.3216 41.5953 17.3216 41.3666V40.504C17.3205 40.1025 17.2265 39.7067 17.0469 39.3476C16.8674 38.9885 16.6072 38.6758 16.2866 38.434L13.8716 36.6227V26.7037C13.8685 25.9451 13.6133 25.209 13.1462 24.6113L14.9359 7.90085L23.1902 9.17048C23.5992 9.23392 23.987 9.39454 24.3211 9.63888C24.6552 9.88321 24.9258 10.2041 25.1102 10.5747L27.3639 15.0813L26.1409 27.3075C26.1047 27.6673 26.1444 28.0307 26.2573 28.3743C26.3702 28.7178 26.5539 29.0339 26.7965 29.3021C27.0391 29.5702 27.3352 29.7846 27.6657 29.9313C27.9963 30.078 28.3539 30.1538 28.7155 30.1538H29.3969V31.8789H27.6719C26.2993 31.8789 24.983 32.4241 24.0125 33.3946C23.042 34.3651 22.4968 35.6814 22.4968 37.054C22.4968 38.4265 23.042 39.7428 24.0125 40.7133C24.983 41.6838 26.2993 42.2291 27.6719 42.2291H50.0973C51.4699 42.2291 52.7862 41.6838 53.7567 40.7133C54.7272 39.7428 55.2724 38.4265 55.2724 37.054C55.2724 35.6814 54.7272 34.3651 53.7567 33.3946C52.7862 32.4241 51.4699 31.8789 50.0973 31.8789ZM8.69647 26.7037C8.69647 26.2462 8.87821 25.8075 9.20172 25.484C9.52523 25.1605 9.964 24.9787 10.4215 24.9787C10.879 24.9787 11.3178 25.1605 11.6413 25.484C11.9648 25.8075 12.1465 26.2462 12.1465 26.7037V28.4288H8.69647V26.7037ZM15.2516 39.814C15.3584 39.8947 15.4451 39.9989 15.5049 40.1186C15.5648 40.2383 15.5961 40.3702 15.5966 40.504H6.97143C5.59891 40.504 4.2826 39.9588 3.31208 38.9883C2.34156 38.0178 1.79633 36.7015 1.79633 35.3289C1.79633 33.9564 2.34156 32.6401 3.31208 31.6696C4.2826 30.6991 5.59891 30.1538 6.97143 30.1538H12.1465V37.054C12.1465 37.1879 12.1777 37.3199 12.2376 37.4397C12.2975 37.5595 12.3844 37.6636 12.4915 37.744L15.2516 39.814ZM13.4179 5.88687L11.535 23.4546C10.8169 23.1867 10.0262 23.1867 9.30799 23.4546L7.42512 5.88687C7.37993 5.46637 7.42376 5.04107 7.55374 4.63863C7.68373 4.23618 7.89697 3.8656 8.17959 3.55098C8.46221 3.23636 8.80789 2.98475 9.19415 2.81251C9.5804 2.64026 9.99859 2.55125 10.4215 2.55125C10.8444 2.55125 11.2626 2.64026 11.6489 2.81251C12.0351 2.98475 12.3808 3.23636 12.6634 3.55098C12.946 3.8656 13.1593 4.23618 13.2893 4.63863C13.4193 5.04107 13.4631 5.46637 13.4179 5.88687ZM23.4524 7.46959L15.1205 6.18789L15.1326 6.07318C15.1955 5.47029 15.142 4.86092 14.9747 4.27828H26.6187C27.0579 4.27689 27.49 4.38792 27.8741 4.60079C28.2582 4.81367 28.5814 5.12131 28.813 5.49443L32.3691 11.1784H30.0955C29.6646 11.1779 29.2405 11.2858 28.8622 11.4921C28.4839 11.6985 28.1635 11.9966 27.9306 12.3592L26.6532 9.79839C26.3444 9.18286 25.8927 8.65023 25.3358 8.24507C24.7789 7.83991 24.1331 7.574 23.4524 7.46959ZM28.0764 28.1476C27.9948 28.0586 27.9331 27.9533 27.8953 27.8387C27.8575 27.724 27.8446 27.6026 27.8573 27.4826L29.2373 13.6823C29.2588 13.4688 29.3591 13.271 29.5185 13.1274C29.678 12.9839 29.8853 12.905 30.0999 12.906H38.3369C38.5359 12.9058 38.7288 12.9744 38.883 13.1001C39.0373 13.2259 39.1432 13.4011 39.183 13.5961L40.3509 19.4482C40.4693 20.034 40.7863 20.5609 41.2483 20.94C41.7103 21.3191 42.2891 21.527 42.8867 21.5286H49.5453C49.7443 21.5284 49.9373 21.597 50.0915 21.7227C50.2457 21.8485 50.3517 22.0237 50.3915 22.2187L51.4265 27.3938C51.4521 27.5191 51.4494 27.6485 51.4188 27.7727C51.3882 27.8969 51.3303 28.0128 51.2494 28.1118C51.1685 28.2109 51.0666 28.2907 50.951 28.3456C50.8354 28.4004 50.7091 28.4288 50.5812 28.4288H28.7155C28.595 28.4294 28.4757 28.4044 28.3655 28.3555C28.2553 28.3066 28.1568 28.2348 28.0764 28.145V28.1476ZM31.1219 30.1538H46.6473V31.8789H31.1219V30.1538ZM50.0973 40.504H27.6719C26.7568 40.504 25.8793 40.1405 25.2323 39.4935C24.5853 38.8465 24.2218 37.969 24.2218 37.054C24.2218 36.1389 24.5853 35.2614 25.2323 34.6144C25.8793 33.9674 26.7568 33.6039 27.6719 33.6039H50.0973C51.0123 33.6039 51.8899 33.9674 52.5369 34.6144C53.1839 35.2614 53.5474 36.1389 53.5474 37.054C53.5474 37.969 53.1839 38.8465 52.5369 39.4935C51.8899 40.1405 51.0123 40.504 50.0973 40.504Z" fill="#FBFBFB"/>
<path d="M50.0975 34.4668H27.672C26.9858 34.4668 26.3276 34.7394 25.8423 35.2247C25.3571 35.7099 25.0845 36.3681 25.0845 37.0544C25.0845 37.7406 25.3571 38.3988 25.8423 38.884C26.3276 39.3693 26.9858 39.6419 27.672 39.6419H41.4723C41.7011 39.6419 41.9205 39.551 42.0822 39.3893C42.244 39.2275 42.3348 39.0081 42.3348 38.7794C42.3348 38.5506 42.244 38.3312 42.0822 38.1695C41.9205 38.0077 41.7011 37.9169 41.4723 37.9169H30.1009C30.3125 37.3613 30.3125 36.7474 30.1009 36.1918H47.6686C47.457 36.7474 47.457 37.3613 47.6686 37.9169H44.9224C44.6936 37.9169 44.4742 38.0077 44.3125 38.1695C44.1507 38.3312 44.0599 38.5506 44.0599 38.7794C44.0599 39.0081 44.1507 39.2275 44.3125 39.3893C44.4742 39.551 44.6936 39.6419 44.9224 39.6419H50.0975C50.7838 39.6419 51.4419 39.3693 51.9272 38.884C52.4124 38.3988 52.685 37.7406 52.685 37.0544C52.685 36.3681 52.4124 35.7099 51.9272 35.2247C51.4419 34.7394 50.7838 34.4668 50.0975 34.4668ZM28.5345 37.0544C28.5345 37.2249 28.484 37.3917 28.3892 37.5335C28.2944 37.6754 28.1597 37.7859 28.0021 37.8512C27.8445 37.9165 27.6711 37.9336 27.5038 37.9003C27.3364 37.867 27.1828 37.7849 27.0621 37.6642C26.9415 37.5436 26.8594 37.3899 26.8261 37.2226C26.7928 37.0553 26.8099 36.8819 26.8752 36.7243C26.9404 36.5667 27.051 36.432 27.1928 36.3372C27.3347 36.2424 27.5014 36.1918 27.672 36.1918C27.9008 36.1918 28.1202 36.2827 28.2819 36.4445C28.4437 36.6062 28.5345 36.8256 28.5345 37.0544ZM50.0975 37.9169C49.9269 37.9169 49.7601 37.8663 49.6183 37.7715C49.4765 37.6767 49.3659 37.542 49.3006 37.3844C49.2354 37.2268 49.2183 37.0534 49.2516 36.8861C49.2848 36.7188 49.367 36.5651 49.4876 36.4445C49.6082 36.3238 49.7619 36.2417 49.9292 36.2084C50.0965 36.1751 50.27 36.1922 50.4276 36.2575C50.5852 36.3228 50.7199 36.4333 50.8147 36.5752C50.9094 36.717 50.96 36.8838 50.96 37.0544C50.96 37.2831 50.8691 37.5025 50.7074 37.6642C50.5456 37.826 50.3262 37.9169 50.0975 37.9169Z" fill="#FBFBFB"/>
<path d="M38.8848 24.9794C39.011 24.9793 39.1358 24.9514 39.2501 24.8978C39.3644 24.8442 39.4656 24.7662 39.5465 24.6692C39.6274 24.5722 39.6859 24.4586 39.7181 24.3365C39.7503 24.2144 39.7552 24.0867 39.7326 23.9625L39.1056 20.5124C39.0879 20.3986 39.0477 20.2895 38.9872 20.1915C38.9267 20.0935 38.8471 20.0086 38.7533 19.9418C38.6595 19.875 38.5532 19.8277 38.4408 19.8027C38.3284 19.7776 38.2121 19.7753 38.0988 19.796C37.9855 19.8166 37.8774 19.8597 37.7811 19.9227C37.6847 19.9858 37.6019 20.0675 37.5376 20.163C37.4733 20.2586 37.4288 20.3661 37.4067 20.4791C37.3846 20.5921 37.3854 20.7084 37.409 20.8212L37.8497 23.2543H31.2083L31.9139 15.4917H36.4447L36.7897 17.3711C36.8073 17.4849 36.8476 17.594 36.9081 17.692C36.9686 17.79 37.0481 17.8749 37.142 17.9417C37.2358 18.0085 37.342 18.0558 37.4545 18.0808C37.5669 18.1059 37.6832 18.1081 37.7965 18.0875C37.9098 18.0669 38.0178 18.0238 38.1142 17.9607C38.2106 17.8977 38.2934 17.816 38.3576 17.7204C38.4219 17.6249 38.4664 17.5174 38.4885 17.4044C38.5106 17.2914 38.5099 17.175 38.4863 17.0623L38.0153 14.4748C37.979 14.2749 37.8732 14.0942 37.7167 13.9647C37.5601 13.8351 37.3629 13.765 37.1597 13.7666H31.1221C30.9062 13.7658 30.6978 13.8459 30.5381 13.9912C30.3784 14.1365 30.279 14.3365 30.2596 14.5515L29.3971 24.0392C29.3862 24.1588 29.4005 24.2794 29.439 24.3932C29.4775 24.507 29.5393 24.6114 29.6205 24.6999C29.7017 24.7884 29.8005 24.859 29.9105 24.9071C30.0206 24.9553 30.1395 24.9799 30.2596 24.9794H38.8848Z" fill="#FBFBFB"/>
<path d="M10.4215 3.41602C9.90977 3.41602 9.40949 3.56777 8.98397 3.8521C8.55845 4.13642 8.2268 4.54054 8.03095 5.01336C7.83511 5.48617 7.78386 6.00644 7.8837 6.50838C7.98355 7.01031 8.22999 7.47137 8.59186 7.83325C8.95374 8.19512 9.4148 8.44156 9.91673 8.5414C10.4187 8.64125 10.9389 8.59 11.4118 8.39416C11.8846 8.19831 12.2887 7.86666 12.573 7.44114C12.8573 7.01562 13.0091 6.51534 13.0091 6.00357C13.0091 5.31731 12.7365 4.65915 12.2512 4.17389C11.766 3.68863 11.1078 3.41602 10.4215 3.41602ZM10.4215 6.86609C10.2509 6.86609 10.0842 6.8155 9.94235 6.72073C9.80051 6.62595 9.68996 6.49125 9.62468 6.33364C9.5594 6.17604 9.54231 6.00261 9.57559 5.8353C9.60888 5.66799 9.69102 5.5143 9.81165 5.39368C9.93227 5.27305 10.086 5.19091 10.2533 5.15762C10.4206 5.12434 10.594 5.14142 10.7516 5.20671C10.9092 5.27199 11.0439 5.38254 11.1387 5.52438C11.2335 5.66622 11.2841 5.83298 11.2841 6.00357C11.2841 6.23232 11.1932 6.45171 11.0314 6.61346C10.8697 6.77522 10.6503 6.86609 10.4215 6.86609Z" fill="#FBFBFB"/>
</svg>
