<svg width="34" height="38" viewBox="0 0 34 38" fill="none" xmlns="http://www.w3.org/2000/svg">
<circle cx="12.5356" cy="24.9346" r="12.5" fill="#FCC944"/>
<g clip-path="url(#clip0_344_500)">
<path d="M27.0746 16.0732C25.4011 16.0732 23.9034 17.1741 23.3478 18.8126C23.1996 19.2496 23.1245 19.7081 23.1245 20.1753C23.1245 22.4372 24.8966 24.2773 27.0746 24.2773C29.2527 24.2773 31.0247 22.4371 31.0247 20.1753C31.0247 17.9135 29.2527 16.0732 27.0746 16.0732ZM27.0746 23.4863C25.3165 23.4863 23.8862 22.0009 23.8862 20.1753C23.8862 19.7978 23.9468 19.4277 24.0663 19.0754C24.5147 17.7528 25.7237 16.8643 27.0746 16.8643C28.8327 16.8643 30.263 18.3496 30.263 20.1753C30.263 22.0009 28.8327 23.4863 27.0746 23.4863Z" fill="#004496" stroke="#004496" stroke-width="0.3"/>
<path d="M33.6156 25.2791L31.6322 23.1688C32.16 22.3025 32.4659 21.2766 32.4659 20.1776C32.4659 19.6218 32.3876 19.0776 32.2368 18.5571L33.0167 18.46C33.1843 18.4391 33.3187 18.3061 33.3468 18.133L33.9599 14.3557C33.9877 14.1844 33.9047 14.0144 33.7553 13.9364L31.7542 12.8922C31.6976 12.2791 31.5914 11.6672 31.4376 11.0679L32.9822 9.35689C33.0969 9.22974 33.1181 9.03948 33.0342 8.8885L31.1987 5.58544C31.1148 5.43441 30.9457 5.35821 30.7823 5.39807L28.5713 5.93533C28.349 5.7082 28.1147 5.48883 27.8739 5.28243C27.6644 5.10265 27.4451 4.92874 27.2223 4.76531C27.2146 4.75967 27.2069 4.75403 27.1992 4.74839L27.3238 2.40656C27.3331 2.23249 27.2315 2.07265 27.0739 2.01301L23.6243 0.708466C23.4666 0.648823 23.29 0.703456 23.1894 0.843044L21.8282 2.7313C21.2356 2.68168 20.6365 2.68363 20.0417 2.73678L18.6894 0.861237C18.5888 0.721702 18.4123 0.666964 18.2545 0.726659L14.8048 2.03115C14.6472 2.09079 14.5457 2.25063 14.555 2.4247L14.6803 4.78045C14.1953 5.13862 13.7374 5.54003 13.315 5.97746L11.1188 5.44385C10.9554 5.40393 10.7863 5.48023 10.7024 5.63121L8.8669 8.93422C8.78301 9.0852 8.80414 9.27541 8.9189 9.40261L10.4739 11.1252C10.3237 11.7242 10.2208 12.3367 10.1672 12.9518L8.18501 13.9894C8.03612 14.0674 7.9533 14.237 7.98082 14.4079L8.58842 18.1844C8.6163 18.3577 8.75077 18.4911 8.9186 18.512L11.1755 18.7931C11.431 19.3529 11.7313 19.8911 12.0708 20.398L11.1836 22.5521C11.1177 22.7124 11.1604 22.8987 11.2889 23.0107L14.1011 25.4624C14.2297 25.5745 14.4137 25.5859 14.554 25.4905L16.458 24.1978C17.0005 24.4555 17.563 24.667 18.1351 24.8283L18.7887 27.0726C18.8373 27.2395 18.9853 27.3536 19.1531 27.3536H22.8241C22.9919 27.3536 23.1399 27.2395 23.1885 27.0726L23.8469 24.812C23.8896 24.7997 23.9319 24.786 23.9746 24.7732C24.851 25.4118 25.9175 25.7872 27.067 25.7872C28.1153 25.7872 29.0947 25.4748 29.9239 24.9354L31.8951 27.0712C32.3472 27.5682 33.1676 27.5716 33.6225 27.0772C34.0964 26.6032 34.0924 25.7496 33.6156 25.2791ZM22.4293 20.1777C22.4293 19.6285 22.5175 19.0899 22.6913 18.577C23.3435 16.6524 25.1019 15.3594 27.067 15.3594C27.9964 15.3594 28.8929 15.6439 29.6597 16.1821C29.8338 16.3044 30.0706 16.2567 30.1882 16.0757C30.3059 15.8947 30.2601 15.6488 30.0859 15.5265C29.6093 15.192 29.0895 14.9426 28.5442 14.7818C28.5704 14.5138 28.5846 14.2433 28.5846 13.9736C28.5846 9.62604 25.1802 6.08905 20.9958 6.08905C20.1184 6.08905 19.2583 6.24335 18.4394 6.54773C18.2415 6.6213 18.1384 6.84768 18.2092 7.0534C18.2801 7.25912 18.498 7.36622 18.6959 7.2926C19.4322 7.01891 20.206 6.88017 20.9958 6.88017C24.7604 6.88017 27.8232 10.0623 27.8232 13.9736C27.8232 14.1892 27.8127 14.4052 27.7941 14.6198C27.5545 14.5862 27.3118 14.5684 27.067 14.5684C26.4944 14.5684 25.9369 14.6627 25.4109 14.8393C25.4621 14.5556 25.4882 14.2664 25.4882 13.9736C25.4882 11.4 23.4729 9.30621 20.9958 9.30621C18.5187 9.30621 16.5035 11.4 16.5035 13.9736C16.5035 14.9731 16.8032 15.9263 17.3703 16.7301C17.4952 16.9074 17.7345 16.9436 17.9023 16.8153C18.0719 16.6862 18.1087 16.4386 17.9844 16.2624C17.5137 15.5952 17.2649 14.8038 17.2649 13.9736C17.2649 11.8362 18.9386 10.0973 20.9958 10.0973C23.0531 10.0973 24.7268 11.8362 24.7268 13.9736C24.7268 14.4054 24.6587 14.8274 24.5256 15.2308C23.5665 15.7632 22.7693 16.5911 22.2613 17.6206C21.8565 17.7723 21.4316 17.85 20.9959 17.85C20.3657 17.85 19.743 17.6838 19.1952 17.3695C19.0112 17.2639 18.7795 17.3333 18.6779 17.5246C18.5763 17.7158 18.6431 17.9565 18.8271 18.062C19.4873 18.4408 20.2373 18.6411 20.9959 18.6411C21.3024 18.6411 21.6046 18.6085 21.9003 18.5456C21.7462 19.0729 21.668 19.6208 21.668 20.1778C21.668 20.4662 21.6891 20.7495 21.7297 21.0262C21.4864 21.0532 21.241 21.067 20.9959 21.067C17.2313 21.067 14.1685 17.8849 14.1685 13.9736C14.1685 11.6061 15.2993 9.40335 17.1934 8.08114C17.368 7.95927 17.4144 7.71358 17.2971 7.53223C17.1798 7.35093 16.9433 7.30268 16.7688 7.42449C14.6638 8.89388 13.4071 11.3421 13.4071 13.9736C13.4071 18.3211 16.8114 21.8581 20.9959 21.8581C21.2976 21.8581 21.6002 21.8392 21.8992 21.8024C22.1663 22.718 22.6532 23.5352 23.2958 24.1877C23.242 24.2359 23.2009 24.299 23.1796 24.372L22.5417 26.5625H19.4358L18.8021 24.3869C18.7633 24.2537 18.6599 24.1515 18.53 24.1177C17.8662 23.9455 17.2144 23.7005 16.5926 23.3895C16.4726 23.3295 16.331 23.3391 16.2193 23.4148L14.3741 24.6676L11.9949 22.5933L12.8548 20.5052C12.9076 20.3772 12.8916 20.2298 12.8128 20.1172C12.4097 19.5406 12.0619 18.9172 11.7791 18.2644C11.7243 18.1379 11.6097 18.0504 11.4772 18.0339L9.2924 17.7618L8.77809 14.5648L10.7009 13.5583C10.8208 13.4955 10.9 13.3719 10.9094 13.2327C10.9574 12.5213 11.0764 11.8115 11.2634 11.1231C11.2997 10.9896 11.2661 10.8463 11.1748 10.7451L9.66757 9.07555L11.2206 6.28095L13.3499 6.79833C13.4805 6.83023 13.6176 6.78804 13.7108 6.68758C14.1886 6.17226 14.7188 5.70736 15.2864 5.30595C15.3968 5.2279 15.4597 5.09554 15.4523 4.95711L15.3308 2.67403L18.2494 1.57035L19.5605 3.38879C19.6409 3.50032 19.7719 3.55981 19.9054 3.54499C20.5912 3.46916 21.2849 3.46705 21.9673 3.53861C22.0999 3.55243 22.2302 3.49315 22.3102 3.3822L23.6295 1.55227L26.548 2.656L26.4272 4.92673C26.4198 5.06606 26.4835 5.19911 26.595 5.27689C27.166 5.67572 27.699 6.1364 28.1791 6.64714C28.2722 6.74612 28.4084 6.78741 28.5381 6.75587L30.6806 6.23523L32.2335 9.02983L30.736 10.6889C30.6441 10.7906 30.6107 10.935 30.6478 11.069C30.839 11.7584 30.9621 12.4674 31.0135 13.1762C31.0236 13.3148 31.1028 13.4376 31.2223 13.5L33.1624 14.5122L32.6434 17.7097L31.9559 17.7954C31.817 17.4888 31.6514 17.1936 31.4583 16.9136C31.3357 16.7359 31.0979 16.6953 30.927 16.8224C30.7561 16.9497 30.7169 17.1968 30.8393 17.3744C31.4054 18.195 31.7045 19.1644 31.7045 20.1776C31.7045 22.8344 29.6241 24.9959 27.0669 24.9959C24.5097 24.9959 22.4293 22.8345 22.4293 20.1777ZM31.1744 23.814L31.6277 24.2964L30.9816 24.9384L30.5445 24.4648C30.7711 24.266 30.9818 24.0483 31.1744 23.814ZM33.0831 26.5187C32.9142 26.702 32.6117 26.7019 32.4415 26.5202L31.5086 25.5094L32.1597 24.8624L33.0732 25.8343C33.2585 26.0103 33.2642 26.3379 33.0831 26.5187Z" fill="#004496" stroke="#004496" stroke-width="0.3"/>
</g>
<defs>
<clipPath id="clip0_344_500">
<rect width="26" height="27" fill="white" transform="translate(7.97559 0.56543)"/>
</clipPath>
</defs>
</svg>
