<svg width="45" height="45" viewBox="0 0 45 45" fill="none" xmlns="http://www.w3.org/2000/svg">
<g clip-path="url(#clip0_645_478)">
<path d="M41.7518 18.0236H38.1859C37.8868 17.0474 37.4954 16.1044 37.0201 15.2063L39.5393 12.6871C40.0784 12.1481 40.3755 11.4299 40.3755 10.6651C40.3755 9.90128 40.0784 9.18315 39.5393 8.64408L36.8439 5.94871C35.7667 4.87151 33.8809 4.86865 32.8018 5.94871L30.2826 8.46788C29.3854 7.99262 28.4416 7.60212 27.4654 7.30211V3.73717C27.4654 2.16185 26.1834 0.879883 24.6081 0.879883H20.7984C19.223 0.879883 17.9411 2.16185 17.9411 3.73717V7.30306C16.9648 7.60307 16.0219 7.99357 15.1238 8.46883L12.6037 5.94966C11.4893 4.83532 9.6759 4.83532 8.56156 5.94966L5.86523 8.64503C4.75185 9.75937 4.75185 11.5728 5.86523 12.6871L8.38441 15.2073C7.90914 16.1044 7.51865 17.0483 7.21863 18.0245H3.65465C2.07933 18.0245 0.797363 19.3065 0.797363 20.8818V24.6915C0.797363 26.2659 2.07933 27.5479 3.65465 27.5479H7.22054C7.52055 28.5241 7.91105 29.467 8.38631 30.3652L5.86714 32.8853C4.7528 33.9996 4.7528 35.813 5.86714 36.9274L8.56251 39.6237C9.67685 40.7371 11.4903 40.7371 12.6046 39.6237L15.1247 37.1045C16.0219 37.5798 16.9658 37.9703 17.942 38.2703V41.8343C17.942 43.4096 19.224 44.6916 20.7993 44.6916H24.609C26.1843 44.6916 27.4663 43.4096 27.4663 41.8343V38.2684C28.4425 37.9684 29.3864 37.5779 30.2836 37.1026L32.8028 39.6228C33.8828 40.7019 35.7686 40.7 36.8449 39.6228L39.5402 36.9274C40.0793 36.3883 40.3765 35.6702 40.3765 34.9063C40.3765 34.1415 40.0793 33.4244 39.5402 32.8853L37.0211 30.3652C37.4963 29.468 37.8868 28.5241 38.1868 27.5479H41.7518C43.3271 27.5479 44.6091 26.2659 44.6091 24.6906V20.8809C44.6091 19.3056 43.3271 18.0236 41.7518 18.0236ZM42.7042 24.6906C42.7042 25.2154 42.2775 25.643 41.7518 25.643H37.4659C37.0315 25.643 36.6525 25.9373 36.5439 26.3573C36.2067 27.6574 35.6934 28.8984 35.0162 30.0451C34.7962 30.4194 34.8562 30.8957 35.1629 31.2023L38.1916 34.232C38.3707 34.4111 38.4697 34.6501 38.4697 34.9063C38.4697 35.1625 38.3707 35.4016 38.1916 35.5807L35.4962 38.276C35.1381 38.6341 34.5067 38.6341 34.1476 38.276L31.1189 35.2473C30.8122 34.9397 30.336 34.8806 29.9607 35.1006C28.8159 35.7769 27.5749 36.2912 26.2739 36.6274C25.8548 36.735 25.5605 37.1141 25.5605 37.5484V41.8343C25.5605 42.3591 25.1338 42.7867 24.6081 42.7867H20.7984C20.2736 42.7867 19.8459 42.3591 19.8459 41.8343V37.5484C19.8459 37.1141 19.5516 36.735 19.1316 36.6264C17.8315 36.2902 16.5905 35.7769 15.4438 35.0997C15.2933 35.0101 15.1266 34.9673 14.96 34.9673C14.7133 34.9673 14.4695 35.0625 14.2857 35.2463L11.2569 38.2751C10.8845 38.6465 10.2807 38.6465 9.90829 38.2751L7.21292 35.5797C6.84052 35.2073 6.84052 34.6025 7.21292 34.2311L10.2416 31.2023C10.5493 30.8947 10.6093 30.4185 10.3883 30.0451C9.71209 28.8984 9.19778 27.6584 8.86157 26.3573C8.75395 25.9373 8.37488 25.643 7.94058 25.643H3.65465C3.12986 25.643 2.70222 25.2154 2.70222 24.6906V20.8809C2.70222 20.3561 3.12986 19.9284 3.65465 19.9284H7.94058C8.37488 19.9284 8.75395 19.6341 8.86253 19.2141C9.19873 17.9141 9.71209 16.673 10.3893 15.5263C10.6102 15.152 10.5502 14.6758 10.2426 14.3691L7.21387 11.3404C6.84243 10.969 6.84243 10.3642 7.21387 9.99176L9.90924 7.29639C10.2816 6.92399 10.8855 6.92494 11.2579 7.29639L14.2866 10.3251C14.5942 10.6327 15.0695 10.6937 15.4438 10.4718C16.5905 9.79556 17.8306 9.28125 19.1316 8.94505C19.5516 8.83647 19.8459 8.4574 19.8459 8.02309V3.73717C19.8459 3.21238 20.2736 2.78474 20.7984 2.78474H24.6081C25.1338 2.78474 25.5605 3.21238 25.5605 3.73717V8.02309C25.5605 8.4574 25.8548 8.83647 26.2748 8.94505C27.5758 9.28125 28.8168 9.79556 29.9617 10.4718C30.3369 10.6928 30.8131 10.6337 31.1198 10.3251L34.1485 7.29639C34.5076 6.93637 35.1391 6.93733 35.4972 7.29639L38.1926 9.99176C38.3716 10.1708 38.4707 10.4108 38.4707 10.6661C38.4707 10.9213 38.3716 11.1613 38.1926 11.3404L35.1638 14.3691C34.8571 14.6768 34.7962 15.153 35.0172 15.5263C35.6943 16.673 36.2077 17.9131 36.5449 19.2141C36.6525 19.6341 37.0315 19.9284 37.4659 19.9284H41.7518C42.2775 19.9284 42.7042 20.3561 42.7042 20.8809V24.6906Z" fill="#004496"/>
<path d="M22.7061 14.2148C17.9802 14.2148 14.1343 18.0607 14.1343 22.7867C14.1343 27.5126 17.9802 31.3586 22.7061 31.3586C27.433 31.3586 31.278 27.5126 31.278 22.7867C31.278 18.0607 27.433 14.2148 22.7061 14.2148ZM22.7061 29.4537C19.0298 29.4537 16.0391 26.4631 16.0391 22.7867C16.0391 19.1103 19.0298 16.1197 22.7061 16.1197C26.3816 16.1197 29.3731 19.1103 29.3731 22.7867C29.3731 26.4631 26.3816 29.4537 22.7061 29.4537Z" fill="#004496"/>
</g>
<defs>
<clipPath id="clip0_645_478">
<rect width="43.8117" height="43.8117" fill="white" transform="translate(0.797363 0.879883)"/>
</clipPath>
</defs>
</svg>
