<svg width="52" height="56" viewBox="0 0 52 56" fill="none" xmlns="http://www.w3.org/2000/svg">
<circle cx="18.8493" cy="36.9323" r="18.8137" fill="#FCC944"/>
<g clip-path="url(#clip0_507_593)">
<path d="M40.729 23.5942C38.2101 23.5942 35.956 25.2512 35.1198 27.7172C34.8967 28.375 34.7837 29.065 34.7837 29.7682C34.7837 33.1725 37.4508 35.9421 40.729 35.9421C44.0072 35.9421 46.6742 33.1725 46.6742 29.7682C46.6742 26.3639 44.0072 23.5942 40.729 23.5942ZM40.729 34.7515C38.0829 34.7515 35.9301 32.516 35.9301 29.7682C35.9301 29.2001 36.0213 28.643 36.2012 28.1127C36.8761 26.1222 38.6957 24.7848 40.729 24.7848C43.375 24.7848 45.5277 27.0203 45.5277 29.7682C45.5277 32.516 43.375 34.7515 40.729 34.7515Z" fill="#004496" stroke="#004496" stroke-width="0.451528"/>
<path d="M50.5745 37.4501L47.5894 34.2741C48.3837 32.9702 48.8442 31.426 48.8442 29.772C48.8442 28.9355 48.7262 28.1163 48.4993 27.333L49.6731 27.1868C49.9254 27.1554 50.1277 26.9551 50.1699 26.6947L51.0927 21.0094C51.1345 20.7517 51.0097 20.4957 50.7848 20.3784L47.773 18.8068C47.6877 17.8839 47.5279 16.963 47.2964 16.061L49.6211 13.4858C49.7939 13.2944 49.8257 13.008 49.6994 12.7808L46.9368 7.80937C46.8106 7.58206 46.5561 7.46737 46.3101 7.52737L42.9823 8.33599C42.6478 7.99415 42.2951 7.66397 41.9327 7.35331C41.6174 7.08274 41.2874 6.82098 40.952 6.57501C40.9405 6.56652 40.9288 6.55802 40.9173 6.54953L41.1047 3.02487C41.1187 2.76287 40.9659 2.52229 40.7286 2.43253L35.5367 0.469071C35.2994 0.379303 35.0336 0.46153 34.8821 0.671623L32.8334 3.51363C31.9414 3.43894 31.0397 3.44188 30.1445 3.52188L28.1092 0.699006C27.9578 0.488992 27.6922 0.406606 27.4546 0.496453L22.2626 2.45983C22.0253 2.5496 21.8725 2.79017 21.8865 3.05217L22.0751 6.59779C21.3451 7.13687 20.656 7.74104 20.0202 8.39941L16.7148 7.59626C16.4688 7.53618 16.2143 7.65103 16.0881 7.87827L13.3254 12.8496C13.1991 13.0768 13.2309 13.3631 13.4037 13.5546L15.7441 16.1473C15.518 17.0488 15.3632 17.9707 15.2825 18.8965L12.2991 20.4582C12.075 20.5756 11.9503 20.8308 11.9918 21.088L12.9063 26.7721C12.9482 27.0328 13.1506 27.2336 13.4032 27.265L16.8 27.6882C17.1846 28.5308 17.6365 29.3408 18.1476 30.1037L16.8123 33.3458C16.713 33.587 16.7773 33.8674 16.9708 34.036L21.2033 37.726C21.3969 37.8948 21.6738 37.912 21.8851 37.7683L24.7507 35.8227C25.5672 36.2106 26.4138 36.529 27.2749 36.7718L28.2586 40.1496C28.3318 40.4007 28.5546 40.5725 28.8071 40.5725H34.3323C34.5848 40.5725 34.8076 40.4008 34.8808 40.1496L35.8718 36.7471C35.9361 36.7287 35.9996 36.7081 36.0638 36.6888C37.383 37.65 38.9882 38.2149 40.7182 38.2149C42.2961 38.2149 43.7701 37.7448 45.0181 36.9329L47.985 40.1474C48.6655 40.8955 49.9002 40.9007 50.5849 40.1566C51.2982 39.443 51.2922 38.1583 50.5745 37.4501ZM33.7381 29.7721C33.7381 28.9455 33.8708 28.1349 34.1324 27.3629C35.1141 24.4662 37.7607 22.5201 40.7182 22.5201C42.1171 22.5201 43.4664 22.9483 44.6205 23.7583C44.8826 23.9424 45.2389 23.8707 45.416 23.5982C45.5931 23.3258 45.5242 22.9557 45.2619 22.7717C44.5446 22.2682 43.7624 21.8928 42.9416 21.6508C42.9811 21.2474 43.0023 20.8403 43.0023 20.4343C43.0023 13.8909 37.8785 8.56736 31.5805 8.56736C30.2599 8.56736 28.9654 8.79959 27.7329 9.25772C27.435 9.36844 27.2798 9.70918 27.3865 10.0188C27.4931 10.3284 27.821 10.4896 28.119 10.3788C29.2272 9.96689 30.3919 9.75807 31.5806 9.75807C37.2467 9.75807 41.8564 14.5475 41.8564 20.4344C41.8564 20.7588 41.8406 21.0839 41.8126 21.4069C41.452 21.3564 41.0867 21.3296 40.7182 21.3296C39.8565 21.3296 39.0173 21.4716 38.2257 21.7373C38.3028 21.3103 38.342 20.875 38.342 20.4344C38.342 16.5609 35.3089 13.4095 31.5806 13.4095C27.8523 13.4095 24.8192 16.5609 24.8192 20.4344C24.8192 21.9388 25.2703 23.3734 26.1238 24.5831C26.3119 24.85 26.672 24.9045 26.9246 24.7113C27.1798 24.517 27.2351 24.1444 27.048 23.8793C26.3396 22.875 25.9652 21.6838 25.9652 20.4344C25.9652 17.2173 28.4842 14.6001 31.5806 14.6001C34.6769 14.6001 37.196 17.2173 37.196 20.4344C37.196 21.0842 37.0936 21.7195 36.8933 22.3266C35.4496 23.1278 34.2498 24.3739 33.4852 25.9235C32.876 26.1518 32.2365 26.2686 31.5807 26.2686C30.6322 26.2686 29.695 26.0185 28.8705 25.5456C28.5935 25.3866 28.2449 25.491 28.0919 25.7789C27.939 26.0667 28.0395 26.429 28.3165 26.5879C29.3101 27.158 30.4389 27.4593 31.5807 27.4593C32.0421 27.4593 32.4968 27.4103 32.942 27.3157C32.7099 28.1093 32.5922 28.9339 32.5922 29.7723C32.5922 30.2063 32.624 30.6327 32.6851 31.0492C32.319 31.0898 31.9495 31.1106 31.5807 31.1106C25.9146 31.1106 21.3048 26.3212 21.3048 20.4343C21.3048 16.8711 23.0068 13.5557 25.8576 11.5656C26.1203 11.3822 26.1902 11.0124 26.0137 10.7395C25.8371 10.4666 25.4811 10.394 25.2185 10.5773C22.0503 12.7889 20.1588 16.4737 20.1588 20.4343C20.1588 26.9777 25.2826 32.3012 31.5807 32.3012C32.0348 32.3012 32.4902 32.2728 32.9402 32.2175C33.3423 33.5955 34.075 34.8254 35.0422 35.8075C34.9613 35.88 34.8994 35.975 34.8674 36.0849L33.9072 39.3818H29.2326L28.2789 36.1074C28.2205 35.9069 28.0649 35.753 27.8693 35.7022C26.8702 35.4429 25.8891 35.0742 24.9534 34.6062C24.7726 34.5159 24.5595 34.5303 24.3914 34.6443L21.6143 36.5298L18.0333 33.4079L19.3276 30.2651C19.407 30.0724 19.383 29.8505 19.2644 29.681C18.6576 28.8132 18.1341 27.8749 17.7085 26.8924C17.6261 26.702 17.4536 26.5704 17.2542 26.5456L13.9658 26.1359L13.1917 21.3242L16.0858 19.8093C16.2661 19.7148 16.3854 19.5287 16.3995 19.3192C16.4717 18.2485 16.651 17.1802 16.9324 16.1441C16.987 15.9432 16.9364 15.7274 16.7989 15.5751L14.5305 13.0623L16.8679 8.85619L20.0727 9.63488C20.2693 9.6829 20.4756 9.61941 20.6159 9.46821C21.3351 8.6926 22.133 7.99288 22.9874 7.38871C23.1534 7.27124 23.2482 7.07203 23.2371 6.86368L23.0542 3.42743L27.447 1.7663L29.4202 4.50321C29.5413 4.67108 29.7385 4.76061 29.9394 4.73831C30.9716 4.62417 32.0157 4.621 33.0427 4.7287C33.2423 4.7495 33.4384 4.66029 33.5588 4.49329L35.5445 1.73907L39.9372 3.40029L39.7554 6.81796C39.7442 7.02766 39.8401 7.22791 40.0079 7.34498C40.8673 7.94526 41.6696 8.63863 42.3921 9.40733C42.5322 9.55631 42.7371 9.61846 42.9324 9.57099L46.1571 8.78737L48.4944 12.9935L46.2404 15.4905C46.1022 15.6436 46.0518 15.8609 46.1077 16.0627C46.3956 17.1003 46.5807 18.1673 46.6582 19.2342C46.6733 19.4427 46.7925 19.6277 46.9724 19.7215L49.8924 21.2451L49.1112 26.0576L48.0765 26.1865C47.8675 25.725 47.6182 25.2807 47.3275 24.8593C47.1431 24.5919 46.7851 24.5308 46.5279 24.7221C46.2707 24.9136 46.2117 25.2856 46.3959 25.5529C47.2479 26.7879 47.6982 28.2469 47.6982 29.7719C47.6982 33.7708 44.567 37.024 40.7181 37.024C36.8693 37.024 33.7381 33.7708 33.7381 29.7721ZM46.9002 35.2451L47.5826 35.9711L46.6102 36.9375L45.9523 36.2246C46.2933 35.9254 46.6105 35.5978 46.9002 35.2451ZM49.773 39.316C49.5189 39.5919 49.0635 39.5917 48.8074 39.3182L47.4033 37.7969L48.3833 36.823L49.7582 38.2859C50.037 38.5507 50.0456 39.0437 49.773 39.316Z" fill="#004496" stroke="#004496" stroke-width="0.451528"/>
</g>
<defs>
<clipPath id="clip0_507_593">
<rect width="39.1325" height="40.6376" fill="white" transform="translate(11.9858 0.254395)"/>
</clipPath>
</defs>
</svg>
