<svg width="41" height="41" viewBox="0 0 41 41" fill="none" xmlns="http://www.w3.org/2000/svg">
<path d="M29.729 23.5942C27.2101 23.5942 24.956 25.2512 24.1198 27.7172C23.8967 28.375 23.7837 29.065 23.7837 29.7682C23.7837 33.1725 26.4508 35.9421 29.729 35.9421C33.0072 35.9421 35.6742 33.1725 35.6742 29.7682C35.6742 26.3639 33.0072 23.5942 29.729 23.5942ZM29.729 34.7515C27.0829 34.7515 24.9301 32.516 24.9301 29.7682C24.9301 29.2001 25.0213 28.643 25.2012 28.1127C25.8761 26.1222 27.6957 24.7848 29.729 24.7848C32.375 24.7848 34.5277 27.0203 34.5277 29.7682C34.5277 32.516 32.375 34.7515 29.729 34.7515Z" fill="#004496" stroke="#004496" stroke-width="0.451528"/>
<path d="M39.5745 37.4501L36.5894 34.2741C37.3837 32.9702 37.8442 31.426 37.8442 29.772C37.8442 28.9355 37.7262 28.1163 37.4993 27.333L38.6731 27.1868C38.9254 27.1554 39.1277 26.9551 39.1699 26.6947L40.0927 21.0094C40.1345 20.7517 40.0097 20.4957 39.7848 20.3784L36.773 18.8068C36.6877 17.8839 36.5279 16.963 36.2964 16.061L38.6211 13.4858C38.7939 13.2944 38.8257 13.008 38.6994 12.7808L35.9368 7.80937C35.8106 7.58206 35.5561 7.46737 35.3101 7.52737L31.9823 8.33599C31.6478 7.99415 31.2951 7.66397 30.9327 7.35331C30.6174 7.08274 30.2874 6.82098 29.952 6.57501C29.9405 6.56652 29.9288 6.55802 29.9173 6.54953L30.1047 3.02487C30.1187 2.76287 29.9659 2.52229 29.7286 2.43253L24.5367 0.469071C24.2994 0.379303 24.0336 0.46153 23.8821 0.671623L21.8334 3.51363C20.9414 3.43894 20.0397 3.44188 19.1445 3.52188L17.1092 0.699006C16.9578 0.488992 16.6922 0.406606 16.4546 0.496453L11.2626 2.45983C11.0253 2.5496 10.8725 2.79017 10.8865 3.05217L11.0751 6.59779C10.3451 7.13687 9.656 7.74104 9.02018 8.39941L5.71479 7.59626C5.46884 7.53618 5.21432 7.65103 5.08806 7.87827L2.32541 12.8496C2.19914 13.0768 2.23094 13.3631 2.40367 13.5546L4.74412 16.1473C4.51797 17.0488 4.36319 17.9707 4.28248 18.8965L1.2991 20.4582C1.075 20.5756 0.950345 20.8308 0.99177 21.088L1.90626 26.7721C1.94822 27.0328 2.15061 27.2336 2.40321 27.265L5.80001 27.6882C6.18461 28.5308 6.63654 29.3408 7.14755 30.1037L5.81231 33.3458C5.71303 33.587 5.77731 33.8674 5.97076 34.036L10.2033 37.726C10.3969 37.8948 10.6738 37.912 10.8851 37.7683L13.7507 35.8227C14.5672 36.2106 15.4138 36.529 16.2749 36.7718L17.2586 40.1496C17.3318 40.4007 17.5546 40.5725 17.8071 40.5725H23.3323C23.5848 40.5725 23.8076 40.4008 23.8808 40.1496L24.8718 36.7471C24.9361 36.7287 24.9996 36.7081 25.0638 36.6888C26.383 37.65 27.9882 38.2149 29.7182 38.2149C31.2961 38.2149 32.7701 37.7448 34.0181 36.9329L36.985 40.1474C37.6655 40.8955 38.9002 40.9007 39.5849 40.1566C40.2982 39.443 40.2922 38.1583 39.5745 37.4501ZM22.7381 29.7721C22.7381 28.9455 22.8708 28.1349 23.1324 27.3629C24.1141 24.4662 26.7607 22.5201 29.7182 22.5201C31.1171 22.5201 32.4664 22.9483 33.6205 23.7583C33.8826 23.9424 34.2389 23.8707 34.416 23.5982C34.5931 23.3258 34.5242 22.9557 34.2619 22.7717C33.5446 22.2682 32.7624 21.8928 31.9416 21.6508C31.9811 21.2474 32.0023 20.8403 32.0023 20.4343C32.0023 13.8909 26.8785 8.56736 20.5805 8.56736C19.2599 8.56736 17.9654 8.79959 16.7329 9.25772C16.435 9.36844 16.2798 9.70918 16.3865 10.0188C16.4931 10.3284 16.821 10.4896 17.119 10.3788C18.2272 9.96689 19.3919 9.75807 20.5806 9.75807C26.2467 9.75807 30.8564 14.5475 30.8564 20.4344C30.8564 20.7588 30.8406 21.0839 30.8126 21.4069C30.452 21.3564 30.0867 21.3296 29.7182 21.3296C28.8565 21.3296 28.0173 21.4716 27.2257 21.7373C27.3028 21.3103 27.342 20.875 27.342 20.4344C27.342 16.5609 24.3089 13.4095 20.5806 13.4095C16.8523 13.4095 13.8192 16.5609 13.8192 20.4344C13.8192 21.9388 14.2703 23.3734 15.1238 24.5831C15.3119 24.85 15.672 24.9045 15.9246 24.7113C16.1798 24.517 16.2351 24.1444 16.048 23.8793C15.3396 22.875 14.9652 21.6838 14.9652 20.4344C14.9652 17.2173 17.4842 14.6001 20.5806 14.6001C23.6769 14.6001 26.196 17.2173 26.196 20.4344C26.196 21.0842 26.0936 21.7195 25.8933 22.3266C24.4496 23.1278 23.2498 24.3739 22.4852 25.9235C21.876 26.1518 21.2365 26.2686 20.5807 26.2686C19.6322 26.2686 18.695 26.0185 17.8705 25.5456C17.5935 25.3866 17.2449 25.491 17.0919 25.7789C16.939 26.0667 17.0395 26.429 17.3165 26.5879C18.3101 27.158 19.4389 27.4593 20.5807 27.4593C21.0421 27.4593 21.4968 27.4103 21.942 27.3157C21.7099 28.1093 21.5922 28.9339 21.5922 29.7723C21.5922 30.2063 21.624 30.6327 21.6851 31.0492C21.319 31.0898 20.9495 31.1106 20.5807 31.1106C14.9146 31.1106 10.3048 26.3212 10.3048 20.4343C10.3048 16.8711 12.0068 13.5557 14.8576 11.5656C15.1203 11.3822 15.1902 11.0124 15.0137 10.7395C14.8371 10.4666 14.4811 10.394 14.2185 10.5773C11.0503 12.7889 9.15882 16.4737 9.15882 20.4343C9.15882 26.9777 14.2826 32.3012 20.5807 32.3012C21.0348 32.3012 21.4902 32.2728 21.9402 32.2175C22.3423 33.5955 23.075 34.8254 24.0422 35.8075C23.9613 35.88 23.8994 35.975 23.8674 36.0849L22.9072 39.3818H18.2326L17.2789 36.1074C17.2205 35.9069 17.0649 35.753 16.8693 35.7022C15.8702 35.4429 14.8891 35.0742 13.9534 34.6062C13.7726 34.5159 13.5595 34.5303 13.3914 34.6443L10.6143 36.5298L7.03329 33.4079L8.32764 30.2651C8.40697 30.0724 8.38298 29.8505 8.26436 29.681C7.65757 28.8132 7.1341 27.8749 6.70854 26.8924C6.62607 26.702 6.45364 26.5704 6.25416 26.5456L2.96582 26.1359L2.19173 21.3242L5.08577 19.8093C5.26614 19.7148 5.38537 19.5287 5.39951 19.3192C5.47174 18.2485 5.65097 17.1802 5.93239 16.1441C5.98703 15.9432 5.93636 15.7274 5.79894 15.5751L3.53048 13.0623L5.86788 8.85619L9.07268 9.63488C9.26934 9.6829 9.47563 9.61941 9.61588 9.46821C10.3351 8.6926 11.133 7.99288 11.9874 7.38871C12.1534 7.27124 12.2482 7.07203 12.2371 6.86368L12.0542 3.42743L16.447 1.7663L18.4202 4.50321C18.5413 4.67108 18.7385 4.76061 18.9394 4.73831C19.9716 4.62417 21.0157 4.621 22.0427 4.7287C22.2423 4.7495 22.4384 4.66029 22.5588 4.49329L24.5445 1.73907L28.9372 3.40029L28.7554 6.81796C28.7442 7.02766 28.8401 7.22791 29.0079 7.34498C29.8673 7.94526 30.6696 8.63863 31.3921 9.40733C31.5322 9.55631 31.7371 9.61846 31.9324 9.57099L35.1571 8.78737L37.4944 12.9935L35.2404 15.4905C35.1022 15.6436 35.0518 15.8609 35.1077 16.0627C35.3956 17.1003 35.5807 18.1673 35.6582 19.2342C35.6733 19.4427 35.7925 19.6277 35.9724 19.7215L38.8924 21.2451L38.1112 26.0576L37.0765 26.1865C36.8675 25.725 36.6182 25.2807 36.3275 24.8593C36.1431 24.5919 35.7851 24.5308 35.5279 24.7221C35.2707 24.9136 35.2117 25.2856 35.3959 25.5529C36.2479 26.7879 36.6982 28.2469 36.6982 29.7719C36.6982 33.7708 33.567 37.024 29.7181 37.024C25.8693 37.024 22.7381 33.7708 22.7381 29.7721ZM35.9002 35.2451L36.5826 35.9711L35.6102 36.9375L34.9523 36.2246C35.2933 35.9254 35.6105 35.5978 35.9002 35.2451ZM38.773 39.316C38.5189 39.5919 38.0635 39.5917 37.8074 39.3182L36.4033 37.7969L37.3833 36.823L38.7582 38.2859C39.037 38.5507 39.0456 39.0437 38.773 39.316Z" fill="#004496" stroke="#004496" stroke-width="0.451528"/>
</svg>
