<svg width="52" height="42" viewBox="0 0 52 42" fill="none" xmlns="http://www.w3.org/2000/svg">
<path d="M50.1919 39.8828H46.8659V37.9792C46.8659 37.5156 46.4988 37.1397 46.0459 37.1397C45.593 37.1397 45.2259 37.5155 45.2259 37.9792V39.8828H37.8224V37.9792C37.8224 37.5156 37.4554 37.1397 37.0025 37.1397C36.5497 37.1397 36.1825 37.5155 36.1825 37.9792V39.8828H28.7789V37.9792C28.7789 37.5156 28.4118 37.1397 27.9589 37.1397C27.5061 37.1397 27.1389 37.5155 27.1389 37.9792V39.8828H19.7354V37.9792C19.7354 37.5156 19.3684 37.1397 18.9155 37.1397C18.4627 37.1397 18.0955 37.5155 18.0955 37.9792V39.8828H10.6919V37.9792C10.6919 37.5156 10.3248 37.1397 9.87191 37.1397C9.41911 37.1397 9.05193 37.5155 9.05193 37.9792V39.8828H2.08917V34.4518H3.84484C4.29763 34.4518 4.66481 34.076 4.66481 33.6123C4.66481 33.1488 4.29773 32.7728 3.84484 32.7728H2.08917V27.6602H3.84484C4.29763 27.6602 4.66481 27.2844 4.66481 26.8207C4.66481 26.3571 4.29773 25.9812 3.84484 25.9812H2.08917V20.8686H3.84484C4.29763 20.8686 4.66481 20.4928 4.66481 20.0291C4.66481 19.5655 4.29773 19.1896 3.84484 19.1896H2.08917V14.077H3.84484C4.29763 14.077 4.66481 13.7012 4.66481 13.2375C4.66481 12.774 4.29773 12.398 3.84484 12.398H2.08917V7.28542H3.84484C4.29763 7.28542 4.66481 6.9096 4.66481 6.44593C4.66481 5.98225 4.29773 5.60643 3.84484 5.60643H2.08917V1.777C2.08917 1.31342 1.72209 0.9375 1.26919 0.9375C0.816299 0.9375 0.449219 1.31342 0.449219 1.777V40.7223C0.449219 41.1859 0.816299 41.5618 1.26919 41.5618H50.1919C50.6447 41.5618 51.0119 41.186 51.0119 40.7223C51.0119 40.2586 50.6448 39.8828 50.1919 39.8828ZM50.6779 28.6794C50.6441 28.6786 47.2686 28.5869 44.6138 27.2279C41.9356 25.8568 39.3522 21.4655 34.0343 21.4655C33.9517 21.4655 33.8721 21.4782 33.7968 21.5015C33.7216 21.4782 33.6419 21.4655 33.5593 21.4655C33.4239 21.4655 33.2906 21.4692 33.1585 21.4749C33.0118 20.9365 32.8847 20.3727 32.7828 19.7809C31.5299 12.5065 29.5576 5.00816 24.4281 4.54866C24.3742 4.54386 24.3211 4.54478 24.2692 4.5505C24.2178 4.54499 24.1654 4.54397 24.1121 4.54866C18.9826 5.00816 17.0102 12.5065 15.7574 19.7809C15.1633 23.2304 13.6964 26.1709 11.3976 28.5208C9.67217 30.2845 8.09691 31.0369 8.08046 31.0447C7.66933 31.2368 7.48753 31.7336 7.67441 32.1552C7.86099 32.5761 8.34648 32.7649 8.7599 32.5727C8.83296 32.5388 10.5726 31.7183 12.5012 29.7651C14.2705 27.9731 16.5518 24.8368 17.3724 20.0724C18.9735 10.7761 21.0961 6.50419 24.2549 6.22123C24.2601 6.22082 24.265 6.2196 24.2701 6.21909C24.2752 6.2196 24.28 6.22082 24.2852 6.22123C27.444 6.50419 29.5667 10.7761 31.1677 20.0724C31.265 20.637 31.3833 21.178 31.5183 21.6973C27.516 22.6253 25.2858 26.0474 22.9799 27.2278C20.335 28.5816 16.949 28.6785 16.9151 28.6793C16.4626 28.6899 16.1041 29.0739 16.1142 29.5372C16.1242 30.0004 16.4994 30.3683 16.9522 30.3578C17.1052 30.3543 20.7329 30.255 23.7133 28.7294C26.3662 27.3715 28.3947 24.0596 32.0116 23.3025C33.0823 26.3007 34.7059 28.4146 36.0391 29.7649C37.9677 31.7182 39.7072 32.5387 39.7803 32.5726C40.1945 32.7651 40.6795 32.5754 40.8658 32.1551C41.053 31.7328 40.8704 31.2353 40.458 31.0437C40.405 31.019 35.9158 28.8683 33.7012 23.1309C33.7337 23.1251 33.7657 23.1178 33.7968 23.1082C33.8721 23.1315 33.9517 23.1443 34.0343 23.1443C38.6826 23.1443 40.8623 27.1844 43.8803 28.7293C46.8606 30.255 50.4884 30.3542 50.6414 30.3577C51.0938 30.3682 51.4694 30.0007 51.4795 29.5371C51.4895 29.0739 51.1306 28.6898 50.6779 28.6794Z" fill="#004496"/>
</svg>
