<svg width="29" height="50" viewBox="0 0 29 50" fill="none" xmlns="http://www.w3.org/2000/svg">
<path d="M3.76426 48.954C4.35641 49.2464 5.07573 49.0891 5.49071 48.5687L28.0489 20.277C28.3865 19.8536 28.4517 19.2742 28.2167 18.7863C27.9818 18.2984 27.4881 17.9882 26.9465 17.9882H17.9431L25.3893 3.01325C25.6066 2.57618 25.5824 2.05781 25.3253 1.64293C25.0683 1.22805 24.6148 0.975586 24.1268 0.975586H7.20814C6.56063 0.975586 5.99639 1.4166 5.83999 2.04484L0.200445 24.697C0.0956437 25.1181 0.190576 25.564 0.457702 25.9058C0.724922 26.2478 1.13473 26.4475 1.5686 26.4475H8.22401L3.02031 47.3492C2.86005 47.9925 3.16976 48.6605 3.76426 48.954V48.954ZM11.3961 25.3783C11.5009 24.9572 11.4059 24.5113 11.1388 24.1694C10.8716 23.8275 10.4618 23.6277 10.0279 23.6277H3.3725L8.31001 3.79536H21.851L14.4049 18.7703C14.1875 19.2074 14.2117 19.7257 14.4689 20.1406C14.7258 20.5556 15.1793 20.808 15.6674 20.808H24.019L7.31943 41.7521L11.3961 25.3783Z" fill="#FBFBFB"/>
</svg>
