<svg width="45" height="47" viewBox="0 0 45 47" fill="none" xmlns="http://www.w3.org/2000/svg">
<path d="M36.5152 44.8384C36.3179 44.8384 36.1191 44.7748 35.9566 44.6445C35.5899 44.3516 35.5427 43.8312 35.8513 43.4835C35.9745 43.3448 36.054 43.183 36.0893 43.0028L42.6127 9.56919C42.7235 9.00213 42.3274 8.45535 41.73 8.35015L36.4228 7.41699C35.9512 7.33396 35.6396 6.90418 35.727 6.45648C35.8145 6.00783 36.2633 5.70778 36.7394 5.79553L42.0466 6.72821C43.5857 6.99948 44.606 8.40864 44.3213 9.86829L37.7979 43.3024C37.709 43.7605 37.4953 44.1902 37.1807 44.5445C37.0087 44.7384 36.7622 44.8384 36.5152 44.8384Z" fill="#004496"/>
<path d="M34.5847 46.2983H3.78405C2.21857 46.2983 0.945312 45.0901 0.945312 43.6036V2.82266C0.945312 1.33659 2.21857 0.12793 3.78405 0.12793H34.5847C36.1497 0.12793 37.4235 1.33659 37.4235 2.82266V43.6036C37.4235 45.0901 36.1497 46.2983 34.5847 46.2983ZM3.78405 1.77675C3.17624 1.77675 2.68225 2.24616 2.68225 2.82266V43.6036C2.68225 44.1801 3.17624 44.6495 3.78405 44.6495H34.5847C35.1925 44.6495 35.6865 44.1801 35.6865 43.6036V2.82266C35.6865 2.24616 35.1925 1.77675 34.5847 1.77675H3.78405Z" fill="#004496"/>
<path d="M30.4758 31.4585H7.89411C7.41403 31.4585 7.02539 31.0896 7.02539 30.6338V27.9495C7.02539 25.6444 9.71106 24.0381 12.1219 24.0381H15.0064C15.4859 24.0381 15.8751 24.407 15.8751 24.8627C15.8751 25.3185 15.4859 25.6869 15.0064 25.6869H12.1219C10.4262 25.6869 8.76233 26.8078 8.76233 27.9495V29.8097H29.607V27.5961C29.607 26.6323 28.1584 25.6869 26.6823 25.6869H23.2209C22.7413 25.6869 22.3522 25.3185 22.3522 24.8627C22.3522 24.407 22.7413 24.0381 23.2209 24.0381H26.6823C28.8874 24.0381 31.344 25.4996 31.344 27.5961V30.6338C31.344 31.0896 30.9554 31.4585 30.4758 31.4585Z" fill="#004496"/>
<path d="M27.0024 18.6791C26.9785 18.6791 26.9547 18.6781 26.9308 18.6763C26.4522 18.6385 26.0964 18.2408 26.1361 17.787L26.5705 12.7547C26.5675 9.91415 24.2531 7.54871 21.4089 7.54871H16.9609C14.1162 7.54871 11.8023 9.91415 11.8023 12.8221L12.2337 17.787C12.273 18.2408 11.9171 18.6385 11.4385 18.6763C10.9604 18.7069 10.542 18.3762 10.5027 17.9219L10.0684 12.89C10.0654 9.00505 13.1586 5.89941 16.9609 5.89941H21.4089C25.2113 5.89941 28.3045 9.00505 28.3045 12.8221L27.8671 17.9219C27.8298 18.3526 27.4501 18.6791 27.0024 18.6791Z" fill="#004496"/>
<path d="M19.1847 26.511C16.6789 26.511 14.4048 25.6307 13.1007 24.1559C11.5203 22.367 10.499 19.8798 10.499 17.8196V14.4965C10.499 13.0949 10.5328 12.2839 11.2196 11.9244C11.8324 11.5989 12.4124 11.9485 12.9233 12.2528C13.6022 12.6594 14.6289 13.2727 16.3047 13.2727C17.6575 13.2727 19.2851 12.8802 20.8585 12.5009C23.4011 11.8872 25.5952 11.3593 26.9221 12.3372C27.5508 12.8019 27.8699 13.528 27.8699 14.497V17.8196C27.8699 19.8798 26.8486 22.367 25.2682 24.1559C23.9646 25.6307 21.69 26.511 19.1847 26.511ZM12.2459 13.7955C12.2404 13.9799 12.2365 14.2092 12.2365 14.4965V17.8196C12.2365 19.4892 13.1186 21.6103 14.4316 23.0963C15.3947 24.1856 17.2157 24.8622 19.1847 24.8622C21.1532 24.8622 22.9742 24.1856 23.9373 23.0963C25.2503 21.6103 26.1329 19.4892 26.1329 17.8196V14.4965C26.1329 14.0634 26.0395 13.7742 25.8556 13.6393C25.1996 13.1543 23.1208 13.6577 21.2864 14.0988C19.6091 14.5031 17.8757 14.9216 16.3047 14.9216C14.3501 14.9216 13.0336 14.254 12.2459 13.7955Z" fill="#004496"/>
<path d="M27.8695 38.0541H9.63044C9.15085 38.0541 8.76172 37.6852 8.76172 37.2294C8.76172 36.7737 9.15085 36.4053 9.63044 36.4053H27.8695C28.3491 36.4053 28.7382 36.7737 28.7382 37.2294C28.7382 37.6852 28.3491 38.0541 27.8695 38.0541Z" fill="#004496"/>
<path d="M19.1843 41.351H9.63044C9.15085 41.351 8.76172 40.9825 8.76172 40.5268C8.76172 40.0711 9.15085 39.7021 9.63044 39.7021H19.1843C19.6639 39.7021 20.0526 40.0711 20.0526 40.5268C20.0526 40.9825 19.6639 41.351 19.1843 41.351Z" fill="#004496"/>
</svg>
