<svg width="52" height="57" viewBox="0 0 52 57" fill="none" xmlns="http://www.w3.org/2000/svg">
<circle cx="19.9378" cy="36.7439" r="19.9021" fill="#FCC944"/>
<g clip-path="url(#clip0_507_709)">
<path d="M49.9529 28.4764C48.0017 26.5296 45.0498 25.9301 42.4917 26.9249L41.3718 25.8074C41.4607 25.7405 41.5463 25.6672 41.6272 25.5864L44.4215 22.7982C44.8795 22.3412 45.1317 21.7317 45.1317 21.082C45.1317 20.4322 44.8795 19.8227 44.4215 19.3658H44.4216C43.9138 18.8592 43.2355 18.6242 42.5693 18.6604C42.586 18.5384 42.595 18.4146 42.595 18.2892C42.595 17.5688 42.315 16.8933 41.8067 16.3872C41.3135 15.8952 40.6752 15.6343 40.028 15.6044C40.3366 14.6678 40.1197 13.5906 39.3804 12.851C38.776 12.2479 37.9535 11.9927 37.1638 12.0839C37.1753 11.9819 37.1819 11.8788 37.1819 11.7745C37.1819 11.0541 36.9025 10.3786 36.3953 9.87246C35.3451 8.82468 33.6365 8.82476 32.5864 9.87246L30.8004 11.6545L30.6622 11.5166C29.9937 10.8496 28.9049 10.8505 28.2351 11.5188L27.6424 12.1102L25.9151 10.3852C26.9117 7.83178 26.3104 4.88651 24.3591 2.93951C22.7344 1.31847 20.4074 0.606682 18.1353 1.03565C17.8101 1.09683 16.8207 1.28302 16.6177 2.04006C16.4191 2.78045 17.1252 3.38737 17.4646 3.67905C17.4989 3.70859 20.2532 6.45158 20.2532 6.45158C20.9683 7.16516 21.0164 8.31369 20.3695 9.08363C19.5969 9.72989 18.4441 9.68215 17.728 8.96757C17.728 8.96757 14.9789 6.21937 14.9492 6.18501C14.6568 5.84645 14.0481 5.14228 13.3077 5.34106C12.5509 5.54459 12.3643 6.53126 12.303 6.85521C11.873 9.12398 12.5865 11.4465 14.2118 13.0681C16.1629 15.0148 19.1148 15.6144 21.6729 14.6197L23.6727 16.6149C23.4286 17.2456 23.3148 17.9396 23.3565 18.6367C23.4514 20.201 22.6221 21.7354 20.5835 23.7674L18.4601 25.8862C17.7413 25.5175 16.8358 25.6325 16.2344 26.2325L13.2604 29.1999C12.9 29.5595 12.7016 30.0389 12.7016 30.5499C12.7016 31.0609 12.9001 31.5403 13.2603 31.8998L21.473 40.0941C21.8455 40.4657 22.3348 40.6515 22.8241 40.6515C23.3134 40.6515 23.8027 40.4657 24.1752 40.0941L27.1492 37.1266C27.5096 36.7671 27.708 36.2877 27.708 35.7767C27.708 35.4677 27.635 35.1705 27.4981 34.9042L31.1103 31.3C32.181 30.2318 32.3549 30.2607 33.489 30.45C33.6799 30.4819 33.8962 30.518 34.1396 30.5527C35.1296 30.6949 36.279 30.1919 36.9313 29.8435L38.2494 31.1591C37.9015 32.052 37.7399 33.0231 37.7808 33.9921C37.7939 34.3055 38.0521 34.5507 38.3628 34.5507C38.371 34.5507 38.3794 34.5506 38.3877 34.5502C38.7094 34.5366 38.9593 34.2649 38.9458 33.9432C38.907 33.0195 39.088 32.0947 39.4693 31.269C39.5717 31.047 39.5249 30.7846 39.3517 30.6118L30.0219 21.3007C30.4013 20.5857 30.6161 19.8252 30.6398 19.0786C31.3113 19.6559 32.1946 20.1262 33.0581 20.3584C33.7652 20.5484 34.4269 20.5794 35.0211 20.4564C35.021 20.463 35.0206 20.4695 35.0206 20.4762C35.0211 21.1956 35.3012 21.8703 35.8083 22.375C36.2854 22.8522 36.9125 23.1276 37.5859 23.1584C37.5166 23.386 37.4807 23.6253 37.4807 23.8702C37.4807 24.52 37.7329 25.1294 38.1908 25.5863C38.6646 26.059 39.2867 26.2953 39.909 26.2952C40.0037 26.2952 40.0984 26.2891 40.1927 26.2781L41.9456 28.0271C42.118 28.1991 42.3792 28.2458 42.6005 28.1443C44.8005 27.1356 47.4243 27.6007 49.1291 29.3017C50.4808 30.6502 51.0739 32.583 50.7158 34.4722C50.6559 34.7887 50.5879 34.9544 50.5441 35.0354C50.4603 34.9805 50.3228 34.8575 50.0981 34.5971C50.0476 34.5387 47.2603 31.7513 47.2603 31.7513C46.1035 30.5968 44.2317 30.5335 42.9991 31.6072C42.9793 31.6245 42.9607 31.643 42.9433 31.6628C41.8663 32.8936 41.9298 34.7628 43.0878 35.9182L46.3774 39.192C46.2955 39.2359 46.1291 39.3034 45.8133 39.3628C43.9191 39.72 41.9811 39.1284 40.63 37.7802C40.2014 37.3507 39.8454 36.8622 39.5717 36.3283C39.4248 36.0417 39.0736 35.9286 38.7869 36.0754C38.5003 36.2224 38.3871 36.5737 38.5341 36.8603C38.863 37.502 39.2904 38.0886 39.8054 38.6047C41.1187 39.915 42.8905 40.6313 44.7216 40.6312C45.1559 40.6312 45.5936 40.5909 46.0292 40.5087C46.3544 40.4475 47.3438 40.2613 47.5469 39.5043C47.7454 38.764 47.0394 38.157 46.7 37.8653C46.6656 37.8358 43.9113 35.0928 43.9113 35.0928C43.1962 34.3792 43.1482 33.2307 43.795 32.4607C44.5676 31.8145 45.7204 31.8623 46.4366 32.5768C46.4366 32.5768 49.1856 35.325 49.2153 35.3594C49.5078 35.698 50.1169 36.4024 50.8568 36.2033C51.6135 35.9998 51.8001 35.0131 51.8614 34.6892C52.2916 32.4206 51.578 30.0981 49.9529 28.4764ZM38.5562 13.6761C39.1401 14.2602 39.1493 15.2161 38.5775 15.8091L36.7034 17.6791C36.3816 17.2129 34.6111 15.4569 34.6111 15.4569L36.3953 13.6767C36.9913 13.082 37.961 13.0821 38.5562 13.6761ZM33.4101 10.6981C34.0061 10.1035 34.976 10.1037 35.5716 10.6981C35.8582 10.984 36.0159 11.3663 36.0159 11.7747C36.0159 12.1831 35.8582 12.5654 35.5716 12.8512L33.7856 14.6333L31.6259 12.4784L33.4101 10.6981ZM22.2189 13.5173C22.0467 13.3454 21.7856 13.2986 21.5641 13.4001C19.3639 14.4087 16.7403 13.9437 15.0355 12.2427C13.6838 10.8941 13.0907 8.96135 13.4488 7.07218C13.5088 6.7557 13.5767 6.58996 13.6205 6.50895C13.7043 6.56392 13.8418 6.6869 14.0666 6.94725C14.117 7.00571 16.9043 9.79309 16.9043 9.79309C18.0613 10.9476 19.933 11.011 21.1655 9.93722C21.1853 9.91996 21.2039 9.9013 21.2213 9.88156C22.2983 8.65077 22.2348 6.78159 21.0768 5.62614C21.0768 5.62614 17.8428 2.43607 17.7872 2.35234C17.8691 2.30849 18.0355 2.24101 18.3513 2.18154C20.2453 1.82409 22.1835 2.41601 23.5356 3.76511C25.2397 5.46545 25.7058 8.08195 24.6953 10.276C24.5931 10.4979 24.6401 10.7599 24.8129 10.9324L26.8171 12.934L24.6445 15.1017C24.505 15.241 24.3767 15.3922 24.2578 15.5515L22.2189 13.5173ZM35.809 18.5715C35.658 18.7222 35.5277 18.888 35.4183 19.0651C34.1763 19.8346 32.2125 18.987 31.2353 18.0456L31.1141 17.9249C30.2207 17.0346 29.7456 16.5606 29.7018 16.5157C29.701 16.5149 29.7002 16.5143 29.6994 16.5135C29.6972 16.5113 29.6952 16.509 29.693 16.5068C29.6899 16.5037 29.6868 16.5014 29.6837 16.4986C29.4608 16.2852 29.1074 16.2814 28.8806 16.4959C28.6466 16.7171 28.6363 17.0861 28.8576 17.3201C28.8597 17.3223 28.8632 17.326 28.8693 17.3322C29.2673 17.7293 29.4776 18.2855 29.4776 18.9407C29.4776 19.9714 28.9509 21.1122 28.0687 21.9925C27.8407 22.2199 27.8403 22.5891 28.0677 22.817C28.1817 22.9311 28.3311 22.9882 28.4805 22.9882C28.6296 22.9882 28.7786 22.9315 28.8924 22.8179C29.0613 22.6494 29.2179 22.4731 29.3644 22.2919L36.0625 28.9766C35.3836 29.2952 34.7263 29.459 34.3048 29.3983C34.0745 29.3654 33.8654 29.3305 33.6809 29.2997C32.3298 29.0743 31.7244 29.0399 30.2865 30.4745L26.7374 34.0158L23.8047 31.0897C23.5768 30.8622 23.2076 30.8626 22.9802 31.0906C22.7527 31.3186 22.7532 31.6878 22.9812 31.9152L26.3244 35.2509C26.3245 35.251 26.3246 35.2511 26.3247 35.2513L26.3251 35.2517L26.3257 35.2523C26.4652 35.3915 26.542 35.5777 26.542 35.7767C26.542 35.9758 26.4652 36.162 26.3257 36.3012L23.3515 39.2687C23.0606 39.5589 22.5874 39.5588 22.2966 39.2687L14.084 31.0744C13.9445 30.9352 13.8677 30.7489 13.8677 30.55C13.8677 30.351 13.9445 30.1647 14.0841 30.0255L17.0581 27.058C17.349 26.7679 17.8222 26.768 18.1129 27.058L21.0538 29.9923C21.2818 30.2197 21.6509 30.2194 21.8784 29.9914C22.1058 29.7635 22.1054 29.3943 21.8774 29.1669L19.3502 26.6453L21.4069 24.593C23.7063 22.3009 24.6375 20.4985 24.5204 18.5665C24.4614 17.5806 24.8246 16.5692 25.4679 15.9271L29.0587 12.3444C29.2706 12.1328 29.6277 12.132 29.8384 12.3422L30.3875 12.89L34.1874 16.6816C34.29 16.7839 34.3923 16.8851 34.4932 16.9849C34.9761 17.4626 35.6723 18.1514 35.8616 18.5187L35.809 18.5715ZM37.7134 21.9955C37.3036 21.9955 36.9199 21.8375 36.6321 21.5495C36.3452 21.264 36.187 20.8826 36.1867 20.4755C36.1865 20.0672 36.3448 19.6842 36.6325 19.397L38.8216 17.2129C39.1195 16.9156 39.5109 16.767 39.9023 16.767C40.2937 16.767 40.6851 16.9156 40.983 17.2129C40.9833 17.2131 40.9834 17.2133 40.9837 17.2135C41.2707 17.4992 41.4289 17.8813 41.4289 18.2895C41.4289 18.6973 41.271 19.0792 40.9836 19.3656C40.9833 19.3658 40.9831 19.3659 40.983 19.3662L38.7936 21.5507C38.5068 21.8375 38.1232 21.9955 37.7134 21.9955ZM39.0146 24.761C38.7774 24.5245 38.6469 24.2081 38.6469 23.8704C38.6469 23.5326 38.7775 23.2163 39.0147 22.9795L41.8068 20.1915C42.0537 19.9451 42.3781 19.822 42.7024 19.822C43.0267 19.822 43.3511 19.9451 43.598 20.1915H43.5981C43.8352 20.428 43.9657 20.7444 43.9657 21.0821C43.9657 21.4199 43.8351 21.7362 43.598 21.9728L40.8037 24.761C40.3103 25.2531 39.5076 25.2531 39.0146 24.761Z" fill="#004496" stroke="#004496" stroke-width="0.418015"/>
</g>
<defs>
<clipPath id="clip0_507_709">
<rect width="39.8042" height="39.8042" fill="white" transform="translate(12.1812 0.879883)"/>
</clipPath>
</defs>
</svg>
