<svg width="40" height="41" viewBox="0 0 40 41" fill="none" xmlns="http://www.w3.org/2000/svg">
<path d="M37.9529 28.4764C36.0017 26.5296 33.0498 25.9301 30.4917 26.9249L29.3718 25.8074C29.4607 25.7405 29.5463 25.6672 29.6272 25.5864L32.4215 22.7982C32.8795 22.3412 33.1317 21.7317 33.1317 21.082C33.1317 20.4322 32.8795 19.8227 32.4215 19.3658H32.4216C31.9138 18.8592 31.2355 18.6242 30.5693 18.6604C30.586 18.5384 30.595 18.4146 30.595 18.2892C30.595 17.5688 30.315 16.8933 29.8067 16.3872C29.3135 15.8952 28.6752 15.6343 28.028 15.6044C28.3366 14.6678 28.1197 13.5906 27.3804 12.851C26.776 12.2479 25.9535 11.9927 25.1638 12.0839C25.1753 11.9819 25.1819 11.8788 25.1819 11.7745C25.1819 11.0541 24.9025 10.3786 24.3953 9.87246C23.3451 8.82468 21.6365 8.82476 20.5864 9.87246L18.8004 11.6545L18.6622 11.5166C17.9937 10.8496 16.9049 10.8505 16.2351 11.5188L15.6424 12.1102L13.9151 10.3852C14.9117 7.83178 14.3104 4.88651 12.3591 2.93951C10.7344 1.31847 8.40737 0.606682 6.13533 1.03565C5.81014 1.09683 4.82074 1.28302 4.61769 2.04006C4.41914 2.78045 5.12517 3.38737 5.46459 3.67905C5.49895 3.70859 8.25321 6.45158 8.25321 6.45158C8.96834 7.16516 9.01638 8.31369 8.36951 9.08363C7.59692 9.72989 6.44411 9.68215 5.72797 8.96757C5.72797 8.96757 2.97892 6.21937 2.94922 6.18501C2.65684 5.84645 2.04814 5.14228 1.30774 5.34106C0.550861 5.54459 0.364285 6.53126 0.303026 6.85521C-0.126956 9.12398 0.586544 11.4465 2.21178 13.0681C4.16291 15.0148 7.11478 15.6144 9.6729 14.6197L11.6727 16.6149C11.4286 17.2456 11.3148 17.9396 11.3565 18.6367C11.4514 20.201 10.6221 21.7354 8.58353 23.7674L6.46005 25.8862C5.74134 25.5175 4.83582 25.6325 4.23443 26.2325L1.2604 29.1999C0.899993 29.5595 0.7016 30.0389 0.7016 30.5499C0.7016 31.0609 0.90007 31.5403 1.26032 31.8998L9.47303 40.0941C9.84548 40.4657 10.3348 40.6515 10.8241 40.6515C11.3134 40.6515 11.8027 40.4657 12.1752 40.0941L15.1492 37.1266C15.5096 36.7671 15.708 36.2877 15.708 35.7767C15.708 35.4677 15.635 35.1705 15.4981 34.9042L19.1103 31.3C20.181 30.2318 20.3549 30.2607 21.489 30.45C21.6799 30.4819 21.8962 30.518 22.1396 30.5527C23.1296 30.6949 24.279 30.1919 24.9313 29.8435L26.2494 31.1591C25.9015 32.052 25.7399 33.0231 25.7808 33.9921C25.7939 34.3055 26.0521 34.5507 26.3628 34.5507C26.371 34.5507 26.3794 34.5506 26.3877 34.5502C26.7094 34.5366 26.9593 34.2649 26.9458 33.9432C26.907 33.0195 27.088 32.0947 27.4693 31.269C27.5717 31.047 27.5249 30.7846 27.3517 30.6118L18.0219 21.3007C18.4013 20.5857 18.6161 19.8252 18.6398 19.0786C19.3113 19.6559 20.1946 20.1262 21.0581 20.3584C21.7652 20.5484 22.4269 20.5794 23.0211 20.4564C23.021 20.463 23.0206 20.4695 23.0206 20.4762C23.0211 21.1956 23.3012 21.8703 23.8083 22.375C24.2854 22.8522 24.9125 23.1276 25.5859 23.1584C25.5166 23.386 25.4807 23.6253 25.4807 23.8702C25.4807 24.52 25.7329 25.1294 26.1908 25.5863C26.6646 26.059 27.2867 26.2953 27.909 26.2952C28.0037 26.2952 28.0984 26.2891 28.1927 26.2781L29.9456 28.0271C30.118 28.1991 30.3792 28.2458 30.6005 28.1443C32.8005 27.1356 35.4243 27.6007 37.1291 29.3017C38.4808 30.6502 39.0739 32.583 38.7158 34.4722C38.6559 34.7887 38.5879 34.9544 38.5441 35.0354C38.4603 34.9805 38.3228 34.8575 38.0981 34.5971C38.0476 34.5387 35.2603 31.7513 35.2603 31.7513C34.1035 30.5968 32.2317 30.5335 30.9991 31.6072C30.9793 31.6245 30.9607 31.643 30.9433 31.6628C29.8663 32.8936 29.9298 34.7628 31.0878 35.9182L34.3774 39.192C34.2955 39.2359 34.1291 39.3034 33.8133 39.3628C31.9191 39.72 29.9811 39.1284 28.63 37.7802C28.2014 37.3507 27.8454 36.8622 27.5717 36.3283C27.4248 36.0417 27.0736 35.9286 26.7869 36.0754C26.5003 36.2224 26.3871 36.5737 26.5341 36.8603C26.863 37.502 27.2904 38.0886 27.8054 38.6047C29.1187 39.915 30.8905 40.6313 32.7216 40.6312C33.1559 40.6312 33.5936 40.5909 34.0292 40.5087C34.3544 40.4475 35.3438 40.2613 35.5469 39.5043C35.7454 38.764 35.0394 38.157 34.7 37.8653C34.6656 37.8358 31.9113 35.0928 31.9113 35.0928C31.1962 34.3792 31.1482 33.2307 31.795 32.4607C32.5676 31.8145 33.7204 31.8623 34.4366 32.5768C34.4366 32.5768 37.1856 35.325 37.2153 35.3594C37.5078 35.698 38.1169 36.4024 38.8568 36.2033C39.6135 35.9998 39.8001 35.0131 39.8614 34.6892C40.2916 32.4206 39.578 30.0981 37.9529 28.4764ZM26.5562 13.6761C27.1401 14.2602 27.1493 15.2161 26.5775 15.8091L24.7034 17.6791C24.3816 17.2129 22.6111 15.4569 22.6111 15.4569L24.3953 13.6767C24.9913 13.082 25.961 13.0821 26.5562 13.6761ZM21.4101 10.6981C22.0061 10.1035 22.976 10.1037 23.5716 10.6981C23.8582 10.984 24.0159 11.3663 24.0159 11.7747C24.0159 12.1831 23.8582 12.5654 23.5716 12.8512L21.7856 14.6333L19.6259 12.4784L21.4101 10.6981ZM10.2189 13.5173C10.0467 13.3454 9.78562 13.2986 9.56414 13.4001C7.36394 14.4087 4.74028 13.9437 3.03552 12.2427C1.68385 10.8941 1.09069 8.96135 1.44884 7.07218C1.50878 6.7557 1.57672 6.58996 1.62049 6.50895C1.70429 6.56392 1.84182 6.6869 2.06656 6.94725C2.11702 7.00571 4.90431 9.79309 4.90431 9.79309C6.06132 10.9476 7.933 11.011 9.16549 9.93722C9.18531 9.91996 9.20389 9.9013 9.22131 9.88156C10.2983 8.65077 10.2348 6.78159 9.07679 5.62614C9.07679 5.62614 5.84279 2.43607 5.78721 2.35234C5.86915 2.30849 6.03551 2.24101 6.35129 2.18154C8.24528 1.82409 10.1835 2.41601 11.5356 3.76511C13.2397 5.46545 13.7058 8.08195 12.6953 10.276C12.5931 10.4979 12.6401 10.7599 12.8129 10.9324L14.8171 12.934L12.6445 15.1017C12.505 15.241 12.3767 15.3922 12.2578 15.5515L10.2189 13.5173ZM23.809 18.5715C23.658 18.7222 23.5277 18.888 23.4183 19.0651C22.1763 19.8346 20.2125 18.987 19.2353 18.0456L19.1141 17.9249C18.2207 17.0346 17.7456 16.5606 17.7018 16.5157C17.701 16.5149 17.7002 16.5143 17.6994 16.5135C17.6972 16.5113 17.6952 16.509 17.693 16.5068C17.6899 16.5037 17.6868 16.5014 17.6837 16.4986C17.4608 16.2852 17.1074 16.2814 16.8806 16.4959C16.6466 16.7171 16.6363 17.0861 16.8576 17.3201C16.8597 17.3223 16.8632 17.326 16.8693 17.3322C17.2673 17.7293 17.4776 18.2855 17.4776 18.9407C17.4776 19.9714 16.9509 21.1122 16.0687 21.9925C15.8407 22.2199 15.8403 22.5891 16.0677 22.817C16.1817 22.9311 16.3311 22.9882 16.4805 22.9882C16.6296 22.9882 16.7786 22.9315 16.8924 22.8179C17.0613 22.6494 17.2179 22.4731 17.3644 22.2919L24.0625 28.9766C23.3836 29.2952 22.7263 29.459 22.3048 29.3983C22.0745 29.3654 21.8654 29.3305 21.6809 29.2997C20.3298 29.0743 19.7244 29.0399 18.2865 30.4745L14.7374 34.0158L11.8047 31.0897C11.5768 30.8622 11.2076 30.8626 10.9802 31.0906C10.7527 31.3186 10.7532 31.6878 10.9812 31.9152L14.3244 35.2509C14.3245 35.251 14.3246 35.2511 14.3247 35.2513L14.3251 35.2517L14.3257 35.2523C14.4652 35.3915 14.542 35.5777 14.542 35.7767C14.542 35.9758 14.4652 36.162 14.3257 36.3012L11.3515 39.2687C11.0606 39.5589 10.5874 39.5588 10.2966 39.2687L2.08398 31.0744C1.94451 30.9352 1.8677 30.7489 1.8677 30.55C1.8677 30.351 1.94451 30.1647 2.08405 30.0255L5.05808 27.058C5.34899 26.7679 5.82219 26.768 6.11294 27.058L9.05378 29.9923C9.28179 30.2197 9.6509 30.2194 9.87837 29.9914C10.1058 29.7635 10.1054 29.3943 9.87743 29.1669L7.35018 26.6453L9.40695 24.593C11.7063 22.3009 12.6375 20.4985 12.5204 18.5665C12.4614 17.5806 12.8246 16.5692 13.4679 15.9271L17.0587 12.3444C17.2706 12.1328 17.6277 12.132 17.8384 12.3422L18.3875 12.89L22.1874 16.6816C22.29 16.7839 22.3923 16.8851 22.4932 16.9849C22.9761 17.4626 23.6723 18.1514 23.8616 18.5187L23.809 18.5715ZM25.7134 21.9955C25.3036 21.9955 24.9199 21.8375 24.6321 21.5495C24.3452 21.264 24.187 20.8826 24.1867 20.4755C24.1865 20.0672 24.3448 19.6842 24.6325 19.397L26.8216 17.2129C27.1195 16.9156 27.5109 16.767 27.9023 16.767C28.2937 16.767 28.6851 16.9156 28.983 17.2129C28.9833 17.2131 28.9834 17.2133 28.9837 17.2135C29.2707 17.4992 29.4289 17.8813 29.4289 18.2895C29.4289 18.6973 29.271 19.0792 28.9836 19.3656C28.9833 19.3658 28.9831 19.3659 28.983 19.3662L26.7936 21.5507C26.5068 21.8375 26.1232 21.9955 25.7134 21.9955ZM27.0146 24.761C26.7774 24.5245 26.6469 24.2081 26.6469 23.8704C26.6469 23.5326 26.7775 23.2163 27.0147 22.9795L29.8068 20.1915C30.0537 19.9451 30.3781 19.822 30.7024 19.822C31.0267 19.822 31.3511 19.9451 31.598 20.1915H31.5981C31.8352 20.428 31.9657 20.7444 31.9657 21.0821C31.9657 21.4199 31.8351 21.7362 31.598 21.9728L28.8037 24.761C28.3103 25.2531 27.5076 25.2531 27.0146 24.761Z" fill="#004496" stroke="#004496" stroke-width="0.418015"/>
</svg>
