<svg width="19" height="13" viewBox="0 0 19 13" fill="none" xmlns="http://www.w3.org/2000/svg">
<path d="M9.47607 8.32989L2.47702 1.11457C2.28477 0.915903 2.02539 0.804272 1.74706 0.800031C1.46858 0.795788 1.20607 0.899467 1.00755 1.09218L0.375614 1.70545C0.17679 1.89785 0.0650017 2.15739 0.0607609 2.43572C0.0565202 2.71404 0.160354 2.97656 0.353222 3.17508L8.68618 11.7661C8.87935 11.9654 9.13982 12.0769 9.41847 12.0803C9.69832 12.0854 9.96176 11.982 10.1611 11.7885L18.7436 3.46317C18.9424 3.27061 19.0542 3.01138 19.0584 2.7329C19.0627 2.45458 18.9588 2.19206 18.766 1.99339L18.153 1.3613C17.7541 0.949994 17.0945 0.939945 16.6834 1.33891L9.47607 8.32989Z" fill="#004496"/>
</svg>
