<svg width="26" height="23" viewBox="0 0 26 23" fill="none" xmlns="http://www.w3.org/2000/svg">
<path d="M0.735009 10.6178L6.50506 12.7694L8.75438 20.0063C8.85218 20.4953 9.43897 20.5931 9.83016 20.2997L13.0575 17.6592C13.3508 17.3658 13.8398 17.3658 14.231 17.6592L20.0011 21.8645C20.3922 22.1579 20.979 21.9623 21.0768 21.4733L25.3799 0.935907C25.4777 0.446922 24.9887 -0.0420594 24.4997 0.153535L0.735009 9.34647C0.148226 9.54206 0.148226 10.4222 0.735009 10.6178ZM8.46101 11.6936L19.8054 4.75C20.001 4.6522 20.1966 4.94559 20.0011 5.04339L10.7103 13.7473C10.4169 14.0407 10.1235 14.4319 10.1235 14.9209L9.83016 17.268C9.83016 17.5614 9.34117 17.6592 9.24337 17.268L8.06979 12.965C7.7764 12.476 7.97202 11.8892 8.46101 11.6936Z" fill="#004496"/>
</svg>
