<svg width="28" height="27" viewBox="0 0 28 27" fill="none" xmlns="http://www.w3.org/2000/svg">
<circle cx="14.197" cy="13.6838" r="13.2727" fill="#2F89CE"/>
<path d="M7.1302 13.9323L10.1817 15.0702L11.3712 18.8974C11.4229 19.156 11.7332 19.2077 11.9401 19.0526L13.6469 17.6561C13.802 17.501 14.0606 17.501 14.2675 17.6561L17.3189 19.8801C17.5258 20.0352 17.8361 19.9318 17.8879 19.6732L20.1635 8.81211C20.2152 8.55351 19.9566 8.29491 19.698 8.39835L7.1302 13.26C6.81988 13.3634 6.81988 13.8289 7.1302 13.9323ZM11.216 14.5012L17.2155 10.8292C17.3189 10.7774 17.4224 10.9326 17.3189 10.9843L12.4056 15.5874C12.2504 15.7425 12.0953 15.9494 12.0953 16.208L11.9401 17.4493C11.9401 17.6044 11.6815 17.6561 11.6298 17.4493L11.0092 15.1736C10.854 14.915 10.9575 14.6047 11.216 14.5012Z" fill="white"/>
</svg>
