<svg width="29" height="50" viewBox="0 0 29 50" fill="none" xmlns="http://www.w3.org/2000/svg">
<path d="M28.404 17.1729C28.2399 16.8465 27.9937 16.6832 27.6655 16.6832H17.9827L27.5835 1.58366C27.7476 1.3388 27.7476 1.01236 27.5835 0.767502C27.4193 0.522645 27.1732 0.359375 26.845 0.359375H13.7157C13.3875 0.359375 13.1414 0.522645 12.9772 0.767502L0.668521 25.2532C0.504373 25.4981 0.504373 25.8245 0.668521 26.0694C0.832669 26.3143 1.16087 26.4775 1.40704 26.4775H9.85898L0.668521 48.2698C0.504373 48.5963 0.668521 49.0044 0.996721 49.2493C1.07875 49.3308 1.24289 49.3308 1.40704 49.3308C1.65322 49.3308 1.89939 49.2493 2.06354 49.086L28.3221 18.0707C28.4862 17.8258 28.5682 17.4994 28.404 17.1729ZM4.27901 43.8624L11.8284 25.9062C11.9104 25.6614 11.9104 25.4165 11.7463 25.1716C11.5822 25.0084 11.336 24.8452 11.0898 24.8452H2.71994L14.2081 1.99179H25.3679L15.6851 17.0913C15.521 17.3361 15.521 17.6626 15.6851 17.9074C15.8493 18.1523 16.0954 18.3155 16.4236 18.3155H25.9424L4.27901 43.8624Z" fill="#004496"/>
</svg>
