<svg width="55" height="62" viewBox="0 0 55 62" fill="none" xmlns="http://www.w3.org/2000/svg">
<circle cx="19.1139" cy="42.6007" r="19.0782" fill="#FCC944"/>
<g clip-path="url(#clip0_507_559)">
<path d="M48.404 17.1729C48.2399 16.8465 47.9937 16.6832 47.6655 16.6832H37.9827L47.5835 1.58366C47.7476 1.3388 47.7476 1.01236 47.5835 0.767502C47.4193 0.522645 47.1732 0.359375 46.845 0.359375H33.7157C33.3875 0.359375 33.1414 0.522645 32.9772 0.767502L20.6685 25.2532C20.5044 25.4981 20.5044 25.8245 20.6685 26.0694C20.8327 26.3143 21.1609 26.4775 21.407 26.4775H29.859L20.6685 48.2698C20.5044 48.5963 20.6685 49.0044 20.9967 49.2493C21.0787 49.3308 21.2429 49.3308 21.407 49.3308C21.6532 49.3308 21.8994 49.2493 22.0635 49.086L48.3221 18.0707C48.4862 17.8258 48.5682 17.4994 48.404 17.1729ZM24.279 43.8624L31.8284 25.9062C31.9104 25.6614 31.9104 25.4165 31.7463 25.1716C31.5822 25.0084 31.336 24.8452 31.0898 24.8452H22.7199L34.2081 1.99179H45.3679L35.6851 17.0913C35.521 17.3361 35.521 17.6626 35.6851 17.9074C35.8493 18.1523 36.0954 18.3155 36.4236 18.3155H45.9424L24.279 43.8624Z" fill="#004496"/>
</g>
<defs>
<clipPath id="clip0_507_559">
<rect width="45.7878" height="51.8928" fill="white" transform="translate(9.19287 0.321289)"/>
</clipPath>
</defs>
</svg>
