<svg width="37" height="42" viewBox="0 0 37 42" fill="none" xmlns="http://www.w3.org/2000/svg">
<circle cx="12.5356" cy="28.6006" r="12.5" fill="#FCC944"/>
<g clip-path="url(#clip0_344_467)">
<path d="M31.727 11.941C31.6195 11.7271 31.4582 11.6201 31.2431 11.6201H24.899L31.1894 1.72695C31.2969 1.56652 31.2969 1.35264 31.1894 1.19221C31.0818 1.03178 30.9206 0.924805 30.7055 0.924805H22.1033C21.8882 0.924805 21.727 1.03178 21.6194 1.19221L13.5548 17.2352C13.4472 17.3956 13.4472 17.6095 13.5548 17.7699C13.6623 17.9304 13.8774 18.0373 14.0387 18.0373H19.5763L13.5548 32.3156C13.4472 32.5295 13.5548 32.7969 13.7698 32.9573C13.8236 33.0108 13.9311 33.0108 14.0387 33.0108C14.2 33.0108 14.3612 32.9573 14.4688 32.8503L31.6733 12.5292C31.7808 12.3688 31.8346 12.1549 31.727 11.941ZM15.9204 29.4279L20.8667 17.663C20.9204 17.5026 20.9204 17.3422 20.8129 17.1817C20.7054 17.0748 20.5441 16.9678 20.3828 16.9678H14.8989L22.4259 1.99436H29.7378L23.3936 11.8875C23.2861 12.0479 23.2861 12.2618 23.3936 12.4222C23.5012 12.5827 23.6625 12.6896 23.8775 12.6896H30.1142L15.9204 29.4279Z" fill="#004496"/>
</g>
<defs>
<clipPath id="clip0_344_467">
<rect width="30" height="34" fill="white" transform="translate(6.03564 0.899414)"/>
</clipPath>
</defs>
</svg>
