<svg width="43" height="45" viewBox="0 0 43 45" fill="none" xmlns="http://www.w3.org/2000/svg">
<path d="M40.8482 22.9823V16.8154C40.8482 14.7242 39.2785 13.0236 37.2952 12.8587L31.7529 2.85544C31.2393 1.93028 30.4099 1.26903 29.4175 0.994459C28.4298 0.721754 27.397 0.864978 26.513 1.39665L7.51349 12.8265H4.17659C2.04769 12.8265 0.316406 14.6154 0.316406 16.8154V40.7483C0.316406 42.9482 2.0476 44.7372 4.17659 44.7372H36.988C39.1169 44.7372 40.8482 42.9483 40.8482 40.7483V34.5814C41.969 34.1684 42.7782 33.0718 42.7782 31.7735V25.7902C42.7782 24.4919 41.969 23.3954 40.8482 22.9823ZM35.0525 12.8265H26.6412L32.9497 9.03126L35.0525 12.8265ZM31.9908 7.30052L22.8052 12.8265H18.9952L31.0381 5.58118L31.9908 7.30052ZM27.4846 3.12029C27.9209 2.85637 28.4307 2.78625 28.918 2.92069C29.4109 3.057 29.8218 3.38617 30.0772 3.84678L30.0792 3.85043L15.1594 12.8265H11.3495L27.4846 3.12029ZM38.918 40.7483C38.918 41.8478 38.0519 42.7427 36.988 42.7427H4.17659C3.11264 42.7427 2.24655 41.8478 2.24655 40.7483V16.8154C2.24655 15.716 3.11264 14.821 4.17659 14.821H36.988C38.0519 14.821 38.918 15.716 38.918 16.8154V22.7986H33.1278C29.9348 22.7986 27.3375 25.4825 27.3375 28.7819C27.3375 32.0812 29.9348 34.7651 33.1278 34.7651H38.918V40.7483V40.7483ZM40.8482 31.7735C40.8482 32.3237 40.4156 32.7707 39.8831 32.7707H33.1278C30.9989 32.7707 29.2676 30.9818 29.2676 28.7819C29.2676 26.582 30.9988 24.793 33.1278 24.793H39.8831C40.4155 24.793 40.8482 25.24 40.8482 25.7902V31.7735V31.7735Z" fill="#FBFBFB" stroke="#FBFBFB" stroke-width="0.2"/>
<path d="M33.1273 26.7871C32.0634 26.7871 31.1973 27.6821 31.1973 28.7815C31.1973 29.8809 32.0634 30.7759 33.1273 30.7759C34.1913 30.7759 35.0574 29.8809 35.0574 28.7815C35.0575 27.6821 34.1914 26.7871 33.1273 26.7871Z" fill="#FBFBFB" stroke="#FBFBFB" stroke-width="0.2"/>
</svg>
