<svg width="28" height="27" viewBox="0 0 28 27" fill="none" xmlns="http://www.w3.org/2000/svg">
<path d="M23.3573 4.18877C20.8782 1.71823 17.5726 0.345703 14.0835 0.345703C6.82965 0.345703 0.953147 6.2018 0.953147 13.4304C0.953147 15.718 1.59589 18.0055 2.69774 19.927L0.861328 26.6981L7.83968 24.8681C9.7679 25.8746 11.8798 26.4236 14.0835 26.4236C21.3373 26.4236 27.2138 20.5675 27.2138 13.3389C27.1219 9.95336 25.8365 6.65931 23.3573 4.18877ZM20.4191 18.097C20.1436 18.829 18.8581 19.561 18.2154 19.6525C17.6644 19.744 16.9299 19.744 16.1953 19.561C15.7362 19.378 15.0935 19.195 14.3589 18.829C11.0534 17.4565 8.94152 14.1624 8.75788 13.8879C8.57424 13.7049 7.38057 12.1494 7.38057 10.5024C7.38057 8.85534 8.20696 8.12333 8.48242 7.75733C8.75788 7.39132 9.12516 7.39132 9.40062 7.39132C9.58426 7.39132 9.85972 7.39132 10.0434 7.39132C10.227 7.39132 10.5025 7.29982 10.7779 7.94033C11.0534 8.58084 11.6961 10.2279 11.7879 10.3194C11.8798 10.5024 11.8798 10.6854 11.7879 10.8684C11.6961 11.0514 11.6043 11.2344 11.4207 11.4174C11.237 11.6004 11.0534 11.8749 10.9616 11.9664C10.7779 12.1494 10.5943 12.3324 10.7779 12.6069C10.9616 12.9729 11.6043 13.9794 12.6143 14.8944C13.8998 15.9925 14.9098 16.3585 15.2771 16.5415C15.6444 16.7245 15.828 16.633 16.0117 16.45C16.1953 16.267 16.8381 15.535 17.0217 15.169C17.2054 14.8029 17.4808 14.8944 17.7563 14.9859C18.0317 15.0774 19.6845 15.901 19.96 16.084C20.3272 16.267 20.5109 16.3585 20.6027 16.45C20.6945 16.7245 20.6945 17.365 20.4191 18.097Z" fill="#004496"/>
</svg>
