<svg width="28" height="27" viewBox="0 0 28 27" fill="none" xmlns="http://www.w3.org/2000/svg">
<circle cx="14.0696" cy="13.6838" r="13.2727" fill="#48C95F"/>
<path d="M19.33 8.41617C18.0189 7.10964 16.2708 6.38379 14.4256 6.38379C10.5894 6.38379 7.48166 9.48075 7.48166 13.3036C7.48166 14.5133 7.82157 15.7231 8.40428 16.7393L7.43311 20.3201L11.1236 19.3523C12.1433 19.8846 13.2601 20.175 14.4256 20.175C18.2617 20.175 21.3694 17.078 21.3694 13.2552C21.3209 11.4647 20.6411 9.7227 19.33 8.41617ZM17.7761 15.7715C17.6304 16.1586 16.9506 16.5457 16.6107 16.5941C16.3193 16.6425 15.9309 16.6425 15.5424 16.5457C15.2996 16.4489 14.9597 16.3521 14.5712 16.1586C12.8231 15.4327 11.7063 13.6907 11.6092 13.5455C11.512 13.4487 10.8808 12.6261 10.8808 11.7551C10.8808 10.8841 11.3178 10.4969 11.4635 10.3034C11.6092 10.1098 11.8034 10.1098 11.9491 10.1098C12.0462 10.1098 12.1919 10.1098 12.289 10.1098C12.3861 10.1098 12.5318 10.0614 12.6774 10.4002C12.8231 10.7389 13.163 11.6099 13.2116 11.6583C13.2601 11.7551 13.2601 11.8519 13.2116 11.9486C13.163 12.0454 13.1145 12.1422 13.0174 12.239C12.9202 12.3358 12.8231 12.4809 12.7746 12.5293C12.6774 12.6261 12.5803 12.7229 12.6774 12.8681C12.7746 13.0616 13.1145 13.5939 13.6486 14.0778C14.3284 14.6585 14.8626 14.8521 15.0568 14.9488C15.2511 15.0456 15.3482 14.9972 15.4453 14.9004C15.5424 14.8037 15.8823 14.4165 15.9794 14.223C16.0765 14.0294 16.2222 14.0778 16.3679 14.1262C16.5136 14.1746 17.3876 14.6101 17.5333 14.7069C17.7275 14.8037 17.8247 14.852 17.8732 14.9004C17.9218 15.0456 17.9218 15.3843 17.7761 15.7715Z" fill="white"/>
</svg>
