<svg width="24" height="25" viewBox="0 0 24 25" xmlns="http://www.w3.org/2000/svg">
<path d="M10.8 19.8992H13.2V17.4992H10.8V19.8992ZM12 0.699219C10.4241 0.699219 8.86371 1.00961 7.4078 1.61266C5.95189 2.21572 4.62902 3.09963 3.51472 4.21394C1.26428 6.46437 0 9.51662 0 12.6992C0 15.8818 1.26428 18.9341 3.51472 21.1845C4.62902 22.2988 5.95189 23.1827 7.4078 23.7858C8.86371 24.3888 10.4241 24.6992 12 24.6992C15.1826 24.6992 18.2348 23.4349 20.4853 21.1845C22.7357 18.9341 24 15.8818 24 12.6992C24 11.1234 23.6896 9.56292 23.0866 8.10702C22.4835 6.65111 21.5996 5.32824 20.4853 4.21394C19.371 3.09963 18.0481 2.21572 16.5922 1.61266C15.1363 1.00961 13.5759 0.699219 12 0.699219ZM12 22.2992C6.708 22.2992 2.4 17.9912 2.4 12.6992C2.4 7.40722 6.708 3.09922 12 3.09922C17.292 3.09922 21.6 7.40722 21.6 12.6992C21.6 17.9912 17.292 22.2992 12 22.2992ZM12 5.49922C10.727 5.49922 9.50606 6.00493 8.60589 6.90511C7.70571 7.80528 7.2 9.02618 7.2 10.2992H9.6C9.6 9.6627 9.85286 9.05225 10.3029 8.60216C10.753 8.15208 11.3635 7.89922 12 7.89922C12.6365 7.89922 13.247 8.15208 13.6971 8.60216C14.1471 9.05225 14.4 9.6627 14.4 10.2992C14.4 12.6992 10.8 12.3992 10.8 16.2992H13.2C13.2 13.5992 16.8 13.2992 16.8 10.2992C16.8 9.02618 16.2943 7.80528 15.3941 6.90511C14.4939 6.00493 13.273 5.49922 12 5.49922Z"/>
</svg>
