<svg width="22" height="22" viewBox="0 0 22 22" xmlns="http://www.w3.org/2000/svg">
<path d="M21.1983 14.735L17.3679 2.12657C17.32 1.96697 17.1604 1.87121 17.0008 1.90313L13.4258 2.5575C13.0587 1.36049 11.8139 0.594411 10.5371 0.833812C9.26031 1.05725 8.38252 2.22233 8.44636 3.48318L4.87136 4.13754C4.75964 4.1535 4.66388 4.24926 4.63196 4.36098L0.801604 16.9694C0.785645 17.0013 0.785645 17.0332 0.785645 17.0652C0.785645 19.3475 2.65294 21.2148 4.9352 21.2148C7.21745 21.2148 9.08475 19.3475 9.08475 17.0652C9.08475 17.0332 9.08475 17.0013 9.06879 16.9694L5.35015 4.7121L8.57404 4.12158C8.90919 5.17494 9.8987 5.89314 10.9999 5.89314C11.1436 5.89314 11.3032 5.87718 11.4628 5.84526C12.7396 5.60586 13.6173 4.45674 13.5535 3.1959L16.6178 2.62134L12.947 14.735C12.9151 14.7669 12.9151 14.7988 12.9151 14.8308C12.9151 17.113 14.7824 18.9804 17.0647 18.9804C19.3469 18.9804 21.2142 17.113 21.2142 14.8308C21.2142 14.7988 21.2142 14.7669 21.1983 14.735ZM4.9352 20.5764C3.09982 20.5764 1.5996 19.1719 1.44 17.3844H8.4304C8.2708 19.1719 6.77058 20.5764 4.9352 20.5764ZM8.33464 16.746H1.53576L4.9352 5.55798L8.33464 16.746ZM11.351 5.22282C10.3137 5.41434 9.30819 4.72806 9.11667 3.6747C9.02091 3.16398 9.13263 2.66922 9.41991 2.23829C9.70718 1.82333 10.1541 1.53605 10.6488 1.44029C10.7765 1.44029 10.8882 1.42433 10.9999 1.42433C11.9096 1.42433 12.7076 2.07869 12.8832 2.98842C13.0747 4.04178 12.3884 5.0313 11.351 5.22282V5.22282ZM17.0647 3.32358L20.4641 14.5116H13.6652L17.0647 3.32358ZM17.0647 18.342C15.2293 18.342 13.7291 16.9375 13.5695 15.15H20.5599C20.4003 16.9375 18.9 18.342 17.0647 18.342V18.342Z" stroke-width="0.8"/>
</svg>
