<svg width="14" height="18" viewBox="0 0 14 18" xmlns="http://www.w3.org/2000/svg">
<path d="M12.9564 4.6595L9.2065 0.675225C9.11897 0.582189 8.9995 0.529297 8.875 0.529297H2.3125C1.53709 0.529297 0.90625 1.19957 0.90625 2.02344V16.0352C0.90625 16.859 1.53709 17.5293 2.3125 17.5293H11.6875C12.4629 17.5293 13.0938 16.859 13.0938 16.0352V5.01172C13.0938 4.87592 13.0401 4.74838 12.9564 4.6595ZM9.34375 2.22973L11.4933 4.51367H9.8125C9.55403 4.51367 9.34375 4.29025 9.34375 4.01562V2.22973ZM11.6875 16.5332H2.3125C2.05403 16.5332 1.84375 16.3098 1.84375 16.0352V2.02344C1.84375 1.74881 2.05403 1.52539 2.3125 1.52539H8.40625V4.01562C8.40625 4.83949 9.03709 5.50977 9.8125 5.50977H12.1562V16.0352C12.1562 16.3098 11.946 16.5332 11.6875 16.5332Z"/>
<path d="M9.8125 7.56836H4.1875C3.92862 7.56836 3.71875 7.79135 3.71875 8.06641C3.71875 8.34146 3.92862 8.56445 4.1875 8.56445H9.8125C10.0714 8.56445 10.2812 8.34146 10.2812 8.06641C10.2812 7.79135 10.0714 7.56836 9.8125 7.56836Z"/>
<path d="M9.8125 9.56055H4.1875C3.92862 9.56055 3.71875 9.78354 3.71875 10.0586C3.71875 10.3336 3.92862 10.5566 4.1875 10.5566H9.8125C10.0714 10.5566 10.2812 10.3336 10.2812 10.0586C10.2812 9.78354 10.0714 9.56055 9.8125 9.56055Z"/>
<path d="M9.8125 11.5527H4.1875C3.92862 11.5527 3.71875 11.7757 3.71875 12.0508C3.71875 12.3258 3.92862 12.5488 4.1875 12.5488H9.8125C10.0714 12.5488 10.2812 12.3258 10.2812 12.0508C10.2812 11.7757 10.0714 11.5527 9.8125 11.5527Z"/>
<path d="M7.9375 13.5449H4.1875C3.92862 13.5449 3.71875 13.7679 3.71875 14.043C3.71875 14.318 3.92862 14.541 4.1875 14.541H7.9375C8.19637 14.541 8.40625 14.318 8.40625 14.043C8.40625 13.7679 8.19637 13.5449 7.9375 13.5449Z"/>
</svg>
