<svg width="19" height="20" viewBox="0 0 19 20" xmlns="http://www.w3.org/2000/svg">
<path d="M18.3929 17.806L13.8709 13.1028C15.0336 11.7207 15.6706 9.98166 15.6706 8.17124C15.6706 3.94139 12.2292 0.5 7.99937 0.5C3.76951 0.5 0.328125 3.94139 0.328125 8.17124C0.328125 12.4011 3.76951 15.8425 7.99937 15.8425C9.58731 15.8425 11.1005 15.3635 12.3943 14.4543L16.9507 19.1931C17.1411 19.3909 17.3973 19.5 17.6718 19.5C17.9316 19.5 18.1781 19.4009 18.3652 19.2208C18.7628 18.8383 18.7755 18.2039 18.3929 17.806ZM7.99937 2.50119C11.1259 2.50119 13.6694 5.04471 13.6694 8.17124C13.6694 11.2978 11.1259 13.8413 7.99937 13.8413C4.87284 13.8413 2.32932 11.2978 2.32932 8.17124C2.32932 5.04471 4.87284 2.50119 7.99937 2.50119Z"/>
</svg>
