<svg width="946" height="117" viewBox="0 0 946 117" fill="none" xmlns="http://www.w3.org/2000/svg">
<rect x="52.7744" y="3.57617" width="256.226" height="115.121" fill="white"/>
<path d="M78.7295 4.12289L1.5298 114.862L1.24219 115.25H33.6341L112.122 4.12289H78.7295Z" fill="white"/>
<path d="M21.0513 40.3492L47.2784 4.11328H78.4221L52.8633 40.3492H37.0127H21.0513Z" fill="white"/>
<path d="M78.7295 4.12289L1.5298 114.862L1.24219 115.25H33.6341L112.122 4.12289H78.7295Z" stroke="white"/>
<path d="M21.0513 40.3492L47.2784 4.11328H78.4221L52.8633 40.3492H37.0127H21.0513Z" stroke="white"/>
<path d="M52.7744 41.0556L79.3172 3.83398H112.174L53.1285 87.5687L52.7744 41.0556Z" fill="#FCC200" stroke="#FCC200"/>
<path d="M120.731 41.0341L147.274 3.8125H180.131L121.085 87.5472L120.731 41.0341Z" fill="#FCC200" stroke="#FCC200"/>
<path d="M188.773 41.0341L215.316 3.8125H248.173L189.127 87.5472L188.773 41.0341Z" fill="#FCC200" stroke="#FCC200"/>
<path d="M86.9009 41.3907L34.6685 116.239L66.7881 116.211L119.268 41.3906L86.9009 41.3907Z" fill="#014898" stroke="#014898"/>
<path d="M154.942 41.3907L102.71 115.239L134.83 115.211L187.31 41.3906L154.942 41.3907Z" fill="#014898" stroke="#014898"/>
<path d="M222.971 41.3907L170.738 115.239L202.858 115.211L255.338 41.3906L222.971 41.3907Z" fill="#014898" stroke="#014898"/>
<path d="M201.622 118.115L283.537 2.76495L1158.68 1.20215V121.465L201.622 118.115Z" fill="#FCC200" stroke="#FCC200" stroke-width="0.95017"/>
</svg>
