<svg width="1160" height="112" viewBox="0 0 1160 112" fill="none" xmlns="http://www.w3.org/2000/svg">
<mask id="mask0_704_6797" style="mask-type:alpha" maskUnits="userSpaceOnUse" x="0" y="0" width="1160" height="112">
<rect width="1160" height="112" fill="white"/>
</mask>
<g mask="url(#mask0_704_6797)">
<rect x="52" width="256" height="112" fill="white"/>
<path d="M77.692 0.00965875L0.492275 111.355L0 112H32.4664L111.084 0.00965875H77.692Z" fill="white"/>
<path d="M20.0138 36.4341L46.2409 0H77.3846L51.8257 36.4341H35.9752H20.0138Z" fill="white"/>
<path d="M77.692 0.00965875L0.492275 111.355L0 112H32.4664L111.084 0.00965875H77.692Z" stroke="white"/>
<path d="M20.0138 36.4341L46.2409 0H77.3846L51.8257 36.4341H35.9752H20.0138Z" stroke="white"/>
<path d="M51.7368 37.4677L78.2796 0.246094H111.136L52.0909 83.9808L51.7368 37.4677Z" fill="#FCC200" stroke="#FCC200"/>
<path d="M119.693 37.4462L146.236 0.224609H179.093L120.047 83.9593L119.693 37.4462Z" fill="#FCC200" stroke="#FCC200"/>
<path d="M187.735 37.4462L214.278 0.224609H247.135L188.089 83.9593L187.735 37.4462Z" fill="#FCC200" stroke="#FCC200"/>
<path d="M85.7376 38.0001L33 111.732L65.3415 112L118 38L85.7376 38.0001Z" fill="#014898" stroke="#014898"/>
<path d="M153.905 37.8029L101.672 111.803L133.792 111.775L186.272 37.8027L153.905 37.8029Z" fill="#014898" stroke="#014898"/>
<path d="M221.933 37.8029L169.701 111.803L201.82 111.775L254.3 37.8027L221.933 37.8029Z" fill="#014898" stroke="#014898"/>
<path d="M202.568 111.713L281.771 0.256302L1159.63 -3V115L202.568 111.713Z" fill="#FCC200" stroke="#FCC200" stroke-width="0.95017"/>
</g>
</svg>
