<svg width="42" height="95" viewBox="0 0 42 95" fill="none" xmlns="http://www.w3.org/2000/svg">
<path d="M21.6432 -0.0335113L-18.4844 63.9595L-19 64.4975H-2.03968L39 -0.0335113H21.6432Z" fill="white"/>
<path d="M-8.33735 20.9006L5.29522 -0.0390625H21.4834L8.19817 20.9006H-0.0407829H-8.33735Z" fill="white"/>
<path d="M21.6432 -0.0335113L-18.4844 63.9595L-19 64.4975H-2.03968L39 -0.0335113H21.6432Z" stroke="white" stroke-width="0.528919"/>
<path d="M-8.33735 20.9006L5.29522 -0.0390625H21.4834L8.19817 20.9006H-0.0407829H-8.33735Z" stroke="white" stroke-width="0.528919"/>
<path d="M-4 40.5L22.5 -0.5L39.5 -0.0264196L-7 74.639L-4 40.5Z" fill="#FCC200" stroke="#FCC200" stroke-width="0.528919"/>
<path d="M-2.5 94.0002L25.5 49.5H41.5L14 94.0002H-2.5Z" fill="#FCC200" stroke="#FCC200" stroke-width="0.528919"/>
<path d="M24 25L-9.5 77.866L-6 94.5H-3L41 25H24Z" fill="white"/>
</svg>
