<svg width="235" height="49" viewBox="0 0 235 49" fill="none" xmlns="http://www.w3.org/2000/svg">
<rect x="0.844727" y="0.337891" width="50.0383" height="48.4888" rx="4.34182" fill="white"/>
<path fill-rule="evenodd" clip-rule="evenodd" d="M41.1513 16.0105L46.1227 24.6597L36.0374 42.0504H25.9564L41.1513 16.0105ZM25.7076 42.0504H15.7854L5.60547 24.6122L10.6044 16.0191L25.7076 42.0504ZM15.7854 7.11328H36.0374L41.0411 15.8188H10.721L15.7854 7.11328Z" fill="#014898"/>
<path fill-rule="evenodd" clip-rule="evenodd" d="M120.856 6.79004H109.478L89.3273 24.9297L101.714 44.4639H115.011C114.395 44.2133 113.786 43.9373 113.187 43.6344C108.021 41.0218 103.814 36.4418 102.745 30.6224C102.497 29.2707 102.431 27.8935 102.55 26.5244L102.553 26.4972L102.556 26.4701C103.436 19.22 109.093 12.9782 115.183 9.42206C117.01 8.35512 118.908 7.48409 120.856 6.79004H120.856ZM87.9418 26.1828L67.8728 44.4639H83.2355L90.5922 37.752L94.8474 44.4639H99.5343L87.9418 26.1828ZM106.555 6.79004H101.266L95.2802 12.4915L91.4577 6.79004H77.8246L88.2652 23.2547L106.555 6.79004ZM75.6444 6.79004H70.9746L81.7343 24.3104L59.7954 44.4639H65.8237L87.1915 24.9996L75.6444 6.79004Z" fill="white"/>
<path fill-rule="evenodd" clip-rule="evenodd" d="M104.156 26.6656C105.484 15.7189 120.536 1.6996 145.744 7.61047C144.17 11.4468 142.596 15.2833 141.022 19.1197C129.142 17.1544 123.271 19.8654 122.36 26.437C121.645 31.5673 128.117 33.2787 138.428 31.5593L133.754 43.7283C116.129 48.2384 103.179 37.8611 104.156 26.6656Z" fill="white"/>
<path fill-rule="evenodd" clip-rule="evenodd" d="M213.701 5.59961C223.126 5.59961 229.551 8.82076 233.124 15.6286L219.784 20.2626C211.842 14.1189 204.163 19.6945 204.163 26.4183C204.165 33.1246 211.969 35.2564 217.503 31.5365C214.992 31.5365 212.48 31.5365 209.969 31.5365L211.835 22.2684H234.783C235.903 37.2794 225.967 44.8163 210.66 44.8163C200.961 44.6312 192.479 41.843 189.014 33.2713L188.323 44.4648H174.013L174.718 29.7161L165.825 44.4648H155.885L153.962 29.678L148.515 44.4648H133.471L147.943 6.79095H163.159L165.33 24.779L176.413 6.79095H190.646L190.049 16.4808C194.342 9.24091 203.104 5.59961 213.701 5.59961Z" fill="white"/>
</svg>
