<svg width="300" height="94" viewBox="0 0 300 94" fill="none" xmlns="http://www.w3.org/2000/svg">
<path fill-rule="evenodd" clip-rule="evenodd" d="M107.657 66.3272C108.939 69.1335 110.489 71.7925 112.273 74.2697L117.886 72.8492C119.757 75.1791 121.879 77.3012 124.209 79.1807L122.788 84.7933C125.326 86.6295 128.046 88.2145 130.93 89.5137L135.079 85.4862C137.833 86.5602 140.726 87.3484 143.731 87.8074L145.308 93.368C146.867 93.5239 148.443 93.6019 150.037 93.6019C151.613 93.6019 153.181 93.5239 154.714 93.368L156.29 87.8074C159.296 87.3484 162.197 86.5689 164.952 85.4948L169.101 89.5224C171.985 88.2232 174.713 86.6468 177.242 84.8106L175.822 79.2067C178.16 77.3272 180.282 75.2051 182.162 72.8752L187.774 74.2957C189.567 71.8099 191.126 69.1422 192.417 66.3272L299.983 63.6335L235.014 63.2178H189.645H183.504H176.367C170.928 72.0524 161.175 77.9421 150.046 77.9421C138.916 77.9421 129.154 72.0524 123.724 63.2178H116.587H110.385H65.0774L0.108398 63.6335L107.657 66.3272Z" fill="#F9B000"/>
<path fill-rule="evenodd" clip-rule="evenodd" d="M192.434 27.7669C191.152 24.9606 189.602 22.3015 187.809 19.8244L182.205 21.2449C180.326 18.9063 178.204 16.7842 175.874 14.9047L177.294 9.29215C174.756 7.45594 172.037 5.87957 169.153 4.58036L165.004 8.6079C162.249 7.53389 159.348 6.74571 156.342 6.28665L154.766 0.726042C153.216 0.570137 151.648 0.492188 150.054 0.492188C148.469 0.492188 146.901 0.570137 145.351 0.726042L143.775 6.28665C140.769 6.74571 137.876 7.53389 135.122 8.59924L130.973 4.5717C128.089 5.87091 125.361 7.45593 122.823 9.28348L124.243 14.8961C121.913 16.7669 119.791 18.889 117.92 21.2189L112.308 19.7984C110.515 22.2842 108.956 24.9433 107.674 27.7669L0.108398 30.4606L65.0774 30.8763H110.428H116.595H123.732C129.172 22.0417 138.924 16.152 150.054 16.152C161.184 16.152 170.945 22.0417 176.376 30.8763H183.513H189.697H235.031L300 30.4606L192.434 27.7669Z" fill="#006C24"/>
<path fill-rule="evenodd" clip-rule="evenodd" d="M18.0984 57.1545H12.7197L14.5819 41.5121H8.31104L8.77874 37.6058H26.6991L26.2314 41.5121H19.9606L18.0984 57.1545ZM43.0345 57.1545L43.5022 53.2483H32.3031L32.7881 49.1947H41.5967L42.0644 45.2885H33.2558L33.7062 41.5207H44.9054L45.3731 37.6145H28.7952L26.4653 57.1632H43.0345V57.1545ZM60.747 37.5971H66.7234L58.8415 47.3758L64.5494 57.1545H58.573L55.1258 51.0136L50.2148 57.1545H44.2384L52.2762 47.3758L46.7242 37.5971H52.666L55.9919 43.7381L60.747 37.5971ZM81.595 56.8687L82.0454 53.101C80.7462 53.179 79.6548 53.2396 78.78 53.3002C77.9052 53.3522 77.195 53.3955 76.6493 53.4128C76.1037 53.4302 75.558 53.4475 75.0123 53.4648C74.4753 53.4821 73.9556 53.4994 73.4533 53.5081C72.9509 53.5168 72.4919 53.5254 72.0761 53.5254C71.6604 53.5254 71.3312 53.3955 71.0887 53.1443C70.8462 52.8931 70.7596 52.5553 70.8029 52.1223L71.8682 43.1837C71.9982 42.0664 72.6651 41.5121 73.8604 41.5121H83.4225L83.8902 37.6058H73.1415C71.0541 37.6058 69.4777 38.0475 68.4297 38.931C67.3816 39.8145 66.732 41.2349 66.5068 43.1924L65.4415 52.1309C65.225 53.9585 65.5194 55.2923 66.3336 56.1498C67.1478 57.0073 68.5336 57.4317 70.4824 57.4317C73.41 57.4317 77.117 57.2411 81.595 56.8687ZM95.3059 57.1545H89.9272L91.7894 41.5121H85.5186L85.9863 37.6058H103.907L103.439 41.5121H97.1681L95.3059 57.1545ZM106.003 37.5971L103.673 57.1459H109.052L109.718 51.5593H116.89C118.977 51.5593 120.554 51.1176 121.602 50.2341C122.65 49.3506 123.3 47.9302 123.525 45.9727L123.854 43.1837C124.088 41.2263 123.785 39.8058 122.944 38.9223C122.104 38.0389 120.64 37.5971 118.544 37.5971H106.003ZM118.475 43.1837L118.146 45.9727C118.016 47.09 117.349 47.6443 116.154 47.6443H110.178L110.914 41.5034H116.89C118.077 41.5121 118.605 42.0664 118.475 43.1837ZM140.016 42.9066C140.146 41.7893 139.618 41.2349 138.422 41.2349H133.347C132.151 41.2349 131.485 41.7893 131.355 42.9066L130.289 51.8451C130.159 52.9624 130.688 53.5168 131.883 53.5168H136.959C138.154 53.5168 138.821 52.9538 138.951 51.8451L140.016 42.9066ZM144.321 51.8451C144.087 53.8026 143.446 55.2231 142.398 56.1065C141.35 56.99 139.773 57.4317 137.686 57.4317H130.22C128.133 57.4317 126.66 56.99 125.82 56.1065C124.98 55.2231 124.677 53.8026 124.911 51.8451L125.976 42.9066C126.21 40.9491 126.851 39.5286 127.899 38.6452C128.947 37.7617 130.523 37.32 132.611 37.32H140.077C142.164 37.32 143.636 37.7617 144.477 38.6452C145.317 39.5286 145.62 40.9491 145.386 42.9066L144.321 51.8451ZM159.521 57.1545L160.951 45.1412L152.35 57.1545H146.677L149.006 37.6058H154.385L152.956 49.6191L161.557 37.6058H167.23L164.9 57.1545H159.521ZM156.646 36.2027C154.056 36.2027 152.904 34.9901 153.199 32.5735L153.303 31.7334H157.183L157.096 32.435C157.062 32.7121 157.131 32.946 157.313 33.1365C157.486 33.3271 157.729 33.4137 158.023 33.4137H158.915C159.218 33.4137 159.478 33.3184 159.695 33.1365C159.92 32.9546 160.041 32.7208 160.076 32.435L160.162 31.7334H164.043L163.939 32.5735C163.653 34.9901 162.215 36.2027 159.625 36.2027H156.646ZM186.701 57.1545H181.322L183.184 41.5121H175.718L173.856 57.1545H168.477L170.807 37.6058H189.031L186.701 57.1545ZM192.322 37.5971H204.864C206.951 37.5971 208.424 38.0389 209.264 38.9223C210.104 39.8058 210.407 41.2263 210.173 43.1837L209.844 45.9727C209.61 47.9302 208.969 49.3506 207.921 50.2341C206.873 51.1176 205.297 51.5593 203.209 51.5593H196.038L195.371 57.1459H189.992L192.322 37.5971ZM204.794 43.1837C204.924 42.0664 204.396 41.5121 203.201 41.5121H197.224L196.488 47.653H202.465C203.66 47.653 204.327 47.09 204.457 45.9814L204.794 43.1837ZM226.335 42.9066C226.465 41.7893 225.937 41.2349 224.742 41.2349H219.666C218.471 41.2349 217.804 41.7893 217.674 42.9066L216.609 51.8451C216.479 52.9624 217.007 53.5168 218.202 53.5168H223.278C224.473 53.5168 225.14 52.9538 225.27 51.8451L226.335 42.9066ZM230.649 51.8451C230.415 53.8026 229.774 55.2231 228.726 56.1065C227.678 56.99 226.101 57.4317 224.014 57.4317H216.548C214.461 57.4317 212.988 56.99 212.148 56.1065C211.308 55.2231 211.005 53.8026 211.239 51.8451L212.304 42.9066C212.538 40.9491 213.179 39.5286 214.227 38.6452C215.275 37.7617 216.851 37.32 218.938 37.32H226.405C228.492 37.32 229.964 37.7617 230.805 38.6452C231.645 39.5286 231.948 40.9491 231.714 42.9066L230.649 51.8451ZM249.574 57.1545H232.996L235.326 37.6058H251.904L251.436 41.5121H240.237L239.786 45.2798H248.595L248.127 49.1861H239.319L238.834 53.2396H250.033L249.574 57.1545ZM269.261 37.32C268.204 37.32 267.321 37.5625 266.619 38.0562C265.909 38.5499 265.294 39.1908 264.766 39.9704L261.145 45.2798H258.46L259.378 37.5971H254L251.67 57.1459H257.049L258.001 49.1861H260.686L264.367 57.1459H270.041L265.398 47.2286L268.837 42.205C268.984 41.9971 269.183 41.8066 269.443 41.6333C269.703 41.4601 269.98 41.3648 270.283 41.3648H271.478L271.929 37.5971C270.647 37.4153 269.763 37.32 269.261 37.32ZM283.18 57.1545H277.801L279.663 41.5121H273.393L273.86 37.6058H291.781L291.313 41.5121H285.042L283.18 57.1545Z" fill="#FBFBFB"/>
</svg>
